<?xml version="1.0" encoding="utf-8"?>
<!-- Generator: Adobe Illustrator 27.5.0, SVG Export Plug-In . SVG Version: 6.00 Build 0)  -->
<svg version="1.1" id="Layer_1" xmlns="http://www.w3.org/2000/svg" xmlns:xlink="http://www.w3.org/1999/xlink" x="0px" y="0px"
	 viewBox="0 0 24 24" style="enable-background:new 0 0 24 24;" xml:space="preserve">
<style type="text/css">
	.st0{fill:#FFFFFF;}
</style>
<path class="st0" d="M11.9,10.3L10.6,11c-0.1-0.3-0.3-0.5-0.5-0.6s-0.4-0.2-0.6-0.2c-0.9,0-1.3,0.6-1.3,1.8c0,0.5,0.1,1,0.3,1.3
	c0.2,0.3,0.6,0.5,1,0.5c0.6,0,1-0.3,1.2-0.9l1.2,0.6c-0.3,0.5-0.6,0.9-1.1,1.1c-0.5,0.3-1,0.4-1.5,0.4c-0.9,0-1.6-0.3-2.2-0.8
	C6.6,13.7,6.3,13,6.3,12c0-0.9,0.3-1.7,0.8-2.3c0.6-0.6,1.3-0.8,2.1-0.8C10.5,8.9,11.4,9.4,11.9,10.3 M17.7,10.3L16.3,11
	c-0.1-0.3-0.3-0.5-0.5-0.6c-0.2-0.1-0.4-0.2-0.6-0.2c-0.9,0-1.3,0.6-1.3,1.8c0,0.5,0.1,1,0.3,1.3c0.2,0.3,0.6,0.5,1,0.5
	c0.6,0,1-0.3,1.2-0.9l1.2,0.6c-0.3,0.5-0.7,0.9-1.1,1.1c-0.5,0.3-1,0.4-1.5,0.4c-0.9,0-1.6-0.3-2.2-0.8S12.1,13,12.1,12
	c0-0.9,0.3-1.7,0.8-2.3c0.6-0.6,1.2-0.8,2.1-0.8C16.3,8.9,17.1,9.4,17.7,10.3 M12,3.5c4.7,0,8.5,3.8,8.5,8.5s-3.8,8.5-8.5,8.5
	S3.5,16.7,3.5,12S7.3,3.5,12,3.5 M12,2C6.5,2,2,6.5,2,12s4.5,10,10,10s10-4.5,10-10S17.5,2,12,2z"/>
</svg>
