<?xml version="1.0" encoding="UTF-8"?>
<svg xmlns="http://www.w3.org/2000/svg" version="1.1" viewBox="0 0 902 140">
  <!-- Generator: Adobe Illustrator 29.1.0, SVG Export Plug-In . SVG Version: 2.1.0 Build 142)  -->
  <defs>
    <style>
      .st0 {
        fill: #033acc;
      }

      .st1 {
        fill: #041b9f;
      }

      .st2 {
        fill: #000815;
      }

      .st3 {
        fill: #2997ff;
      }

      .st4 {
        fill: #0263fa;
      }
    </style>
  </defs>
  <g id="Layer_1">
    <g>
      <path class="st3" d="M44.8,24.3c-.5,1.5-.7,3.2-.7,4.9v15.9s-2.1-.6-2.1-.6c-4.8-1.4-9.7-.8-13.8,1.1v-4.5c0-9.5,7.7-16.7,16.6-16.9Z"/>
      <path class="st3" d="M113.4,115.4c-2.6,8.5-11.7,13.9-20.8,11.3l-4.7-1.4c3.2-3.5,5.2-8.1,5.2-13.3v-1.7s15.4,4.4,15.4,4.4c1.7.5,3.3.7,4.9.7Z"/>
      <path class="st4" d="M64.8,29.3c0,.1,0,.3,0,.4v21.3s-20.7-5.9-20.7-5.9v-15.9c0-1.7.3-3.4.7-4.9,1.6,0,3.3.2,4.9.7l15.1,4.3Z"/>
      <path class="st3" d="M71,14.6c-3.7,3.7-6.2,8.9-6.3,14.7l-15.1-4.3c-1.7-.5-3.3-.7-4.9-.7,2.6-8.5,11.7-13.9,20.8-11.3l5.5,1.6Z"/>
      <path class="st4" d="M114.1,94.6v15.8c0,1.7-.3,3.4-.7,4.9-1.6,0-3.3-.2-4.9-.7l-15.4-4.4v-21.7s21.1,6,21.1,6Z"/>
      <path class="st3" d="M130,94.2v4.3c0,9.5-7.7,16.7-16.6,16.9.5-1.5.7-3.2.7-4.9v-15.8s2.5.7,2.5.7c4.7,1.3,9.4.8,13.4-1.1Z"/>
      <path class="st0" d="M93.1,88.6v21.7s-16.1-4.6-16.1-4.6c-19.5-5.6-32.9-23.4-32.9-43.6v-17s20.7,5.9,20.7,5.9v29.5s28.3,8.1,28.3,8.1Z"/>
      <path class="st4" d="M93,110.3v1.7c0,5.2-2,9.8-5.2,13.3l-17.2-4.9c-25.2-7.2-42.5-30.2-42.5-56.4v-18.4c4.1-2,8.9-2.5,13.8-1.1l2.1.6v17c0,20.3,13.4,38.1,32.9,43.6l16.1,4.6Z"/>
      <path class="st3" d="M87.9,125.3c-4.8,5.3-12.4,7.8-20,5.6l-4.8-1.4c-27.3-7.8-46.1-32.8-46.1-61.1v-5.2c0-7.9,4.6-14.5,11.1-17.6v18.4c0,26.2,17.3,49.2,42.5,56.4l17.2,4.9Z"/>
      <path class="st3" d="M140.8,71.1v5.9c0,7.7-4.5,14.2-10.9,17.2v-18.6c0-26.2-17.3-49.2-42.5-56.3l-16.5-4.7c5.2-5.2,13.1-7.7,21-5.4l2.6.8c27.3,7.8,46.2,32.8,46.1,61.2Z"/>
      <path class="st4" d="M130,75.6v18.6c-4,1.9-8.7,2.4-13.4,1.1l-2.5-.7v-17c0-20.3-13.4-38.1-32.9-43.6l-16.5-4.7c.1-5.8,2.5-11,6.3-14.7l16.5,4.7c25.1,7.2,42.5,30.2,42.5,56.3Z"/>
      <path class="st0" d="M114.1,77.6v17s-21.1-6-21.1-6v-29.5s-28.3-8.1-28.3-8.1v-21.3c0-.1,0-.3,0-.4l16.5,4.7c19.5,5.6,32.9,23.4,32.9,43.6Z"/>
      <polygon class="st1" points="93.1 59.1 93.1 88.6 64.7 80.5 64.7 51 93.1 59.1"/>
    </g>
  </g>
  <g id="Layer_2">
    <g>
      <path class="st2" d="M220.7,94.9c-2.3,3-5.5,5.3-9.6,6.8-4.1,1.6-8.7,2.3-13.9,2.3s-10.1-1.2-14.2-3.6c-4.1-2.4-7.3-5.9-9.5-10.4-2.2-4.5-3.4-9.8-3.5-15.8v-5c0-9.6,2.3-17.2,6.9-22.6s11.1-8.1,19.3-8.1,12.7,1.8,16.9,5.3c4.2,3.5,6.7,8.6,7.5,15.2h-10.9c-1.2-7.7-5.7-11.5-13.4-11.5s-8.7,1.8-11.3,5.4c-2.6,3.6-3.9,8.8-4,15.8v4.9c0,6.9,1.5,12.2,4.4,16.1,2.9,3.8,6.9,5.7,12.1,5.7s9.7-1.3,12.1-3.9v-12.5h-13.1v-8.4h24.2v24.4Z"/>
      <path class="st2" d="M240.5,35.9h-10.6v67.3h10.6V35.9Z"/>
      <path class="st2" d="M260.3,80c0,4.9,1,8.7,3,11.5,2,2.8,4.8,4.1,8.4,4.1s6.4-1.4,8.4-4.2c2-2.8,3-6.9,3-12.3s-1-8.6-3.1-11.4c-2.1-2.8-4.9-4.2-8.4-4.2s-6.2,1.4-8.3,4.1c-2,2.8-3.1,6.9-3.1,12.4ZM249.7,79.1c0-4.7.9-8.8,2.8-12.5,1.8-3.7,4.4-6.6,7.7-8.6,3.3-2,7.2-3,11.5-3,6.4,0,11.6,2.1,15.6,6.2,4,4.1,6.1,9.6,6.5,16.4v2.5c0,4.7-.9,8.9-2.6,12.5-1.8,3.7-4.4,6.5-7.7,8.5-3.3,2-7.2,3-11.6,3-6.7,0-12-2.2-16.1-6.7-4-4.5-6-10.4-6-17.8v-.5h0Z"/>
      <path class="st2" d="M334,79c0-5.1-.9-9-2.7-11.6-1.8-2.6-4.4-3.9-7.9-3.9s-7.9,2-9.7,6v19.5c1.9,4.1,5.2,6.2,9.8,6.2s5.9-1.2,7.7-3.7c1.8-2.5,2.7-6.2,2.8-11.3v-1.4h0ZM344.6,79.9c0,7.4-1.6,13.2-4.9,17.6-3.3,4.3-7.8,6.5-13.6,6.5s-9.9-2-13-6l-.5,5.1h-9.6V35.8h10.6v24.4c3.1-3.6,7.2-5.4,12.4-5.4s10.3,2.1,13.6,6.4c3.3,4.3,5,10.3,5,18v.6h0Z"/>
      <path class="st2" d="M370.4,95.5c2.1,0,4.1-.5,5.9-1.5,1.9-1,3.2-2.4,4.2-4.1v-8.9h-5.7c-3.9,0-6.9.7-8.9,2.1-2,1.4-3,3.3-3,5.8s.7,3.7,2,4.9c1.4,1.2,3.2,1.8,5.5,1.8ZM382.1,103.2c-.5-.9-.9-2.4-1.2-4.4-3.4,3.5-7.5,5.3-12.4,5.3s-8.6-1.4-11.7-4.1c-3-2.7-4.5-6.1-4.5-10.1s1.9-8.9,5.6-11.6c3.7-2.7,9.1-4,16.1-4h6.5v-3.1c0-2.5-.7-4.4-2.1-5.9-1.4-1.5-3.5-2.2-6.3-2.2s-4.4.6-6,1.8c-1.6,1.2-2.3,2.8-2.3,4.6h-10.6c0-2.6.9-5,2.6-7.3,1.7-2.3,4.1-4,7-5.3,3-1.3,6.3-1.9,9.9-1.9,5.6,0,10,1.4,13.3,4.2,3.3,2.8,5,6.7,5.1,11.8v21.4c0,4.3.6,7.7,1.8,10.2v.8h-10.9,0Z"/>
      <path class="st2" d="M412.7,35.9h-10.6v67.3h10.6V35.9Z"/>
      <path class="st2" d="M491.7,48.3h-19.9v54.9h-11v-54.9h-19.7v-8.9h50.6v8.9Z"/>
      <path class="st2" d="M521.4,65.5c-1.4-.2-2.8-.4-4.3-.4-4.9,0-8.2,1.9-9.9,5.6v32.4h-10.6v-47.4h10.2l.3,5.3c2.6-4.1,6.1-6.2,10.7-6.2s2.8.2,3.8.6v10h0Z"/>
      <path class="st2" d="M544.3,95.5c2.1,0,4.1-.5,5.9-1.5,1.9-1,3.2-2.4,4.2-4.1v-8.9h-5.7c-3.9,0-6.9.7-8.9,2.1-2,1.4-3,3.3-3,5.8s.7,3.7,2,4.9c1.4,1.2,3.2,1.8,5.5,1.8ZM556,103.2c-.5-.9-.9-2.4-1.2-4.4-3.4,3.5-7.5,5.3-12.4,5.3s-8.6-1.4-11.7-4.1c-3-2.7-4.5-6.1-4.5-10.1s1.9-8.9,5.6-11.6c3.7-2.7,9.1-4,16.1-4h6.5v-3.1c0-2.5-.7-4.4-2.1-5.9-1.4-1.5-3.5-2.2-6.3-2.2s-4.4.6-6,1.8c-1.5,1.2-2.3,2.8-2.3,4.6h-10.6c0-2.6.9-5,2.6-7.3,1.7-2.3,4.1-4,7-5.3,3-1.3,6.3-1.9,9.9-1.9,5.6,0,10,1.4,13.3,4.2,3.3,2.8,5,6.7,5.1,11.8v21.4c0,4.3.6,7.7,1.8,10.2v.8h-10.9,0Z"/>
      <path class="st2" d="M582.9,80c0,4.8.9,8.6,2.8,11.3,1.9,2.7,4.5,4,7.9,4s7.5-1.9,9.6-5.8v-20.2c-2-3.8-5.1-5.7-9.5-5.7s-6.1,1.4-8,4.1c-1.9,2.7-2.8,6.8-2.8,12.3h0ZM572.3,79.1c0-7.3,1.7-13.2,5.1-17.6,3.4-4.4,7.9-6.6,13.6-6.6s9.1,1.8,12.2,5.3v-24.3h10.6v67.3h-9.6l-.5-4.9c-3.2,3.9-7.4,5.8-12.7,5.8s-10-2.2-13.5-6.7c-3.4-4.5-5.2-10.5-5.2-18.2h0Z"/>
      <path class="st2" d="M644.5,63.4c-2.9,0-5.3,1-7.1,3.1-1.8,2-2.9,4.9-3.4,8.5h20.3v-.8c-.2-3.6-1.2-6.3-2.8-8.1-1.7-1.8-4-2.7-6.9-2.7ZM645.8,104.1c-6.7,0-12.2-2.1-16.4-6.4-4.2-4.2-6.3-9.9-6.3-17v-1.3c0-4.7.9-9,2.7-12.7,1.8-3.7,4.4-6.6,7.7-8.7,3.3-2.1,7-3.1,11-3.1,6.5,0,11.4,2.1,15,6.2,3.5,4.1,5.3,9.9,5.3,17.5v4.3h-31c.3,3.9,1.6,7,3.9,9.3,2.3,2.3,5.2,3.4,8.6,3.4s8.9-2,11.9-5.9l5.7,5.5c-1.9,2.8-4.4,5-7.6,6.6-3.2,1.6-6.7,2.3-10.7,2.3Z"/>
      <path class="st2" d="M712.5,79.4h18.5l-9.3-26.5-9.3,26.5h0ZM734.1,88.3h-24.7l-5.2,14.9h-11.5l24.1-63.8h10l24.1,63.8h-11.6l-5.2-14.9h0Z"/>
      <path class="st2" d="M769.3,35.9h-10.6v67.3h10.6V35.9Z"/>
      <path class="st2" d="M799.7,63.4c-2.9,0-5.3,1-7.1,3.1-1.8,2-2.9,4.9-3.4,8.5h20.3v-.8c-.2-3.6-1.2-6.3-2.8-8.1-1.7-1.8-4-2.7-6.9-2.7ZM800.9,104.1c-6.7,0-12.2-2.1-16.4-6.4-4.2-4.2-6.3-9.9-6.3-17v-1.3c0-4.7.9-9,2.7-12.7,1.8-3.7,4.4-6.6,7.7-8.7,3.3-2.1,7-3.1,11-3.1,6.5,0,11.4,2.1,15,6.2,3.5,4.1,5.3,9.9,5.3,17.5v4.3h-31c.3,3.9,1.6,7,3.9,9.3,2.3,2.3,5.2,3.4,8.6,3.4s8.9-2,11.9-5.9l5.7,5.5c-1.9,2.8-4.4,5-7.6,6.6-3.2,1.6-6.7,2.3-10.7,2.3Z"/>
      <path class="st2" d="M853.2,65.5c-1.4-.2-2.8-.4-4.3-.4-4.9,0-8.2,1.9-9.9,5.6v32.4h-10.6v-47.4h10.2l.3,5.3c2.6-4.1,6.1-6.2,10.7-6.2s2.8.2,3.8.6v10h0Z"/>
      <path class="st2" d="M877,44.2v11.5h8.4v7.9h-8.4v26.5c0,1.8.4,3.1,1.1,3.9.7.8,2,1.2,3.8,1.2s2.5-.2,3.7-.4v8.2c-2.4.7-4.8,1-7,1-8.2,0-12.3-4.5-12.3-13.5v-26.9h-7.8v-7.9h7.8v-11.5h10.6Z"/>
    </g>
  </g>
</svg>