<?xml version="1.0" encoding="utf-8"?>
<!-- Generator: Adobe Illustrator 25.2.3, SVG Export Plug-In . SVG Version: 6.00 Build 0)  -->
<svg version="1.1" id="Layer_1" xmlns="http://www.w3.org/2000/svg" xmlns:xlink="http://www.w3.org/1999/xlink" x="0px" y="0px"
	 viewBox="0 0 169.9 70.9" style="enable-background:new 0 0 169.9 70.9;" xml:space="preserve">
<style type="text/css">
	.st0{fill:#6C937A;}
	.st1{fill:#657C6C;}
	.st2{fill:#76A385;}
	.st3{fill:#586B5C;}
	.st4{fill:#535453;}
	.st5{fill:#85C19D;}
	.st6{fill:#97C1A8;}
	.st7{fill:#C6EAFB;}
</style>
<rect x="31.3" y="42.6" class="st0" width="8.1" height="8.1"/>
<path class="st1" d="M28.5,46.7c0,2.5-2,4.4-4.5,4.4s-4.4-2-4.4-4.5c0-2.4,2-4.4,4.4-4.4C26.5,42.2,28.5,44.2,28.5,46.7L28.5,46.7"
	/>
<polygon class="st2" points="49,42.1 46.7,44.4 44.4,42.1 42,44.4 44.4,46.7 42,49 44.4,51.3 46.7,49 49,51.3 51.3,49 49,46.7 
	51.3,44.4 "/>
<path class="st0" d="M39.8,35.4c0,2.5-2,4.4-4.5,4.4s-4.4-2-4.4-4.5s2-4.4,4.4-4.4C37.8,30.9,39.8,32.9,39.8,35.4"/>
<path class="st1" d="M28.5,35.4c0,2.5-2,4.4-4.5,4.4s-4.4-2-4.4-4.5c0-2.4,2-4.4,4.4-4.4C26.5,30.9,28.4,32.9,28.5,35.4"/>
<rect x="10" y="21.4" class="st3" width="5.4" height="5.4"/>
<rect x="10" y="44" class="st3" width="5.4" height="5.4"/>
<polygon class="st3" points="14.3,32.3 12.7,33.8 11.2,32.3 9.6,33.8 11.2,35.4 9.6,36.9 11.2,38.4 12.7,36.9 14.3,38.4 15.8,36.9 
	14.3,35.4 15.8,33.8 "/>
<polygon class="st1" points="28.7,26.4 26.4,24.1 28.7,21.7 26.4,19.4 24,21.7 21.7,19.4 19.4,21.7 21.7,24.1 19.4,26.4 21.7,28.7 
	24,26.4 26.4,28.7 "/>
<path class="st0" d="M36.9,69.3c0,0.9-0.7,1.6-1.6,1.6s-1.6-0.7-1.6-1.6s0.7-1.6,1.6-1.6l0,0C36.2,67.7,36.9,68.4,36.9,69.3"/>
<path class="st0" d="M38.3,58c0,1.7-1.3,3-3,3s-3-1.3-3-3s1.3-3,3-3l0,0C37,55,38.3,56.3,38.3,58"/>
<path class="st3" d="M14.3,58c0,0.9-0.7,1.6-1.6,1.6s-1.6-0.7-1.6-1.6c0-0.9,0.7-1.6,1.6-1.6l0,0C13.6,56.4,14.3,57.1,14.3,58"/>
<path class="st3" d="M14.3,12.7c0,0.9-0.7,1.6-1.6,1.6s-1.6-0.7-1.6-1.6s0.7-1.6,1.6-1.6l0,0C13.6,11.2,14.3,11.9,14.3,12.7"/>
<path class="st1" d="M27,12.7c0,1.7-1.3,3-3,3s-3-1.3-3-3s1.3-3,3-3S27,11.1,27,12.7"/>
<rect x="32.7" y="10" class="st0" width="5.4" height="5.4"/>
<rect x="31.4" y="20" class="st0" width="8" height="8"/>
<path class="st2" d="M51.1,24c0,2.5-2,4.4-4.5,4.4s-4.4-2-4.4-4.5s2-4.4,4.4-4.4C49.1,19.5,51.1,21.5,51.1,24L51.1,24"/>
<rect y="33.9" class="st4" width="2.8" height="2.8"/>
<path class="st2" d="M49.6,58c0,1.7-1.3,3-3,3s-3-1.3-3-3s1.3-3,3-3l0,0C48.3,55,49.6,56.3,49.6,58"/>
<rect x="56.6" y="56.6" class="st5" width="2.8" height="2.8"/>
<path class="st2" d="M49.6,12.7c0,1.7-1.3,3-3,3s-3-1.3-3-3s1.3-3,3-3S49.6,11.1,49.6,12.7"/>
<path class="st5" d="M61,35.4c0,1.7-1.3,3-3,3s-3-1.3-3-3s1.3-3,3-3S61,33.7,61,35.4"/>
<rect x="55.3" y="21.4" class="st5" width="5.4" height="5.4"/>
<polygon class="st2" points="42,33.1 44.4,35.4 42,37.7 44.4,40 46.7,37.7 49,40 51.3,37.7 49,35.4 51.3,33.1 49,30.7 46.7,33.1 
	44.4,30.7 "/>
<polygon class="st1" points="22.5,61.1 24,59.5 25.6,61.1 27.1,59.5 25.6,58 27.1,56.5 25.6,54.9 24,56.5 22.5,54.9 21,56.5 
	22.5,58 21,59.5 "/>
<path class="st5" d="M61,46.7c0,1.7-1.3,3-3,3s-3-1.3-3-3s1.3-3,3-3S61,45,61,46.7"/>
<path class="st6" d="M69.3,33.8c0.9,0,1.6,0.7,1.6,1.6S70.2,37,69.3,37s-1.6-0.7-1.6-1.6l0,0C67.7,34.5,68.4,33.8,69.3,33.8"/>
<rect x="33.9" y="0" class="st0" width="2.8" height="2.8"/>
<polygon class="st5" points="56.3,11.9 57.2,12.7 56.3,13.5 57.2,14.4 58,13.5 58.8,14.4 59.6,13.5 58.8,12.7 59.6,11.9 58.8,11.1 
	58,11.9 57.2,11.1 "/>
<path class="st7" d="M90,10.1l2.2,6.3l0,0l2.2-6.3h2.2v8.5h-1.7v-2.5l0.2-3.8l0,0l-2.3,6.4h-1.2l-2.3-6.4l0,0l0.2,3.8v2.5h-1.7v-8.5
	C87.8,10.1,90,10.1,90,10.1z"/>
<path class="st7" d="M103.1,16.8h-3l-0.6,1.9h-1.7l2.9-8.5h1.8l2.9,8.5h-1.7L103.1,16.8z M100.5,15.5h2.2l-1.1-3.5l0,0L100.5,15.5z"
	/>
<path class="st7" d="M109.5,13.1l1.6-3h2l-2.5,4.2l2.7,4.3h-2.1l-1.7-3.1l-1.7,3.1h-2l2.6-4.3l-2.5-4.2h2L109.5,13.1z"/>
<path class="st7" d="M92.3,30.4c0-0.3-0.1-0.6-0.3-0.8c-0.4-0.3-0.8-0.5-1.2-0.6c-0.8-0.2-1.6-0.5-2.3-1c-0.5-0.4-0.8-1-0.8-1.7
	s0.3-1.3,0.9-1.7c0.7-0.5,1.5-0.7,2.3-0.7s1.7,0.2,2.3,0.7c0.6,0.5,0.9,1.1,0.9,1.9h-1.7c0-0.4-0.1-0.7-0.4-1s-0.7-0.4-1.1-0.4
	s-0.8,0.1-1.1,0.3c-0.2,0.2-0.4,0.5-0.4,0.8s0.1,0.6,0.4,0.7c0.4,0.3,0.9,0.5,1.4,0.6c0.8,0.2,1.5,0.5,2.2,1
	c0.5,0.4,0.8,1.1,0.7,1.8c0,0.7-0.3,1.3-0.8,1.7c-0.7,0.4-1.5,0.7-2.3,0.6c-0.9,0-1.7-0.2-2.4-0.7c-0.7-0.5-1-1.2-1-2.1h1.7
	c0,0.4,0.1,0.9,0.5,1.1c0.4,0.3,0.8,0.4,1.3,0.4c0.4,0,0.8-0.1,1.1-0.3C92.2,31,92.3,30.7,92.3,30.4z"/>
<path class="st7" d="M102,29.8c0,0.8-0.4,1.6-1,2.2c-0.7,0.5-1.5,0.8-2.4,0.8s-1.8-0.3-2.5-1c-0.6-0.7-0.9-1.6-0.9-2.6v-1.7
	c0-0.9,0.3-1.8,1-2.5c0.6-0.7,1.5-1,2.4-1c0.9-0.1,1.7,0.2,2.4,0.8c0.6,0.6,0.9,1.4,1,2.2h-1.7c0-0.5-0.2-0.9-0.4-1.2
	c-0.3-0.3-0.8-0.5-1.2-0.4c-0.5,0-0.9,0.2-1.2,0.6c-0.3,0.5-0.5,1-0.4,1.6v1.7c0,0.6,0.1,1.1,0.4,1.6c0.3,0.4,0.7,0.6,1.2,0.6
	c0.4,0,0.9-0.1,1.2-0.4c0.3-0.3,0.5-0.8,0.5-1.2L102,29.8z"/>
<path class="st7" d="M110.3,32.6h-1.7v-3.5h-3.5v3.5h-1.7v-8.5h1.7v3.7h3.5v-3.7h1.7V32.6z"/>
<path class="st7" d="M114.4,24.1l2.2,6.3l0,0l2.2-6.3h2.2v8.5h-1.7v-2.5l0.2-3.8l0,0l-2.3,6.4H116l-2.3-6.3l0,0l0.2,3.8v2.5h-1.7
	v-8.5h2.2V24.1z"/>
<path class="st7" d="M124.7,32.6H123v-8.5h1.7V32.6z"/>
<path class="st7" d="M126.7,32.6v-8.5h2.8c1-0.1,2.1,0.3,2.8,1s1.1,1.7,1,2.7v1.1c0.1,1-0.3,2-1,2.7c-0.8,0.7-1.8,1.1-2.8,1H126.7z
	 M128.4,25.4v5.9h0.9c0.6,0.1,1.3-0.2,1.7-0.6c0.4-0.5,0.6-1.1,0.5-1.8v-1.1c0-0.6-0.2-1.3-0.5-1.8c-0.4-0.5-1.1-0.7-1.7-0.6H128.4z
	"/>
<path class="st7" d="M141.8,32.6h-1.7v-3.5h-3.5v3.5h-1.7v-8.5h1.7v3.7h3.5v-3.7h1.7V32.6z"/>
<path class="st7" d="M148.9,28.9h-3.5v2.4h4.1v1.3h-5.8v-8.5h5.8v1.3h-4.1v2.1h3.5V28.9z"/>
<path class="st7" d="M152.6,32.6h-1.7v-8.5h1.7V32.6z"/>
<path class="st7" d="M161.4,32.6h-1.7l-3.5-5.9l0,0v5.8h-1.7V24h1.7l3.5,5.9l0,0V24h1.7V32.6z"/>
<path class="st7" d="M166.1,28.1l1.9-4h1.9l-2.9,5.5v3h-1.7v-3l-2.9-5.4h1.9L166.1,28.1z"/>
<path class="st7" d="M93,43.1h-3.6v3.5h-1.7v-8.5h5.8v1.3h-4.1v2.3H93V43.1z"/>
<path class="st7" d="M101.8,43.1c0,1-0.3,1.9-1,2.6c-0.7,0.7-1.6,1-2.6,1s-1.9-0.3-2.6-1s-1-1.6-1-2.6v-1.5c0-1,0.3-1.9,1-2.6
	c0.7-0.7,1.6-1,2.6-1s1.9,0.3,2.6,1s1,1.6,1,2.6V43.1z M100.1,41.6c0-0.6-0.2-1.1-0.5-1.6c-0.3-0.4-0.8-0.7-1.4-0.6
	c-0.5,0-1,0.2-1.4,0.6c-0.3,0.5-0.5,1.1-0.5,1.6v1.5c0,0.6,0.1,1.2,0.5,1.7c0.3,0.4,0.8,0.7,1.4,0.6c0.5,0,1.1-0.2,1.4-0.6
	c0.3-0.5,0.5-1.1,0.5-1.7V41.6z"/>
<path class="st7" d="M110.1,38.1v5.7c0.1,0.8-0.3,1.7-0.9,2.2c-0.7,0.5-1.6,0.8-2.5,0.8s-1.8-0.2-2.5-0.8c-0.6-0.6-1-1.4-0.9-2.2
	v-5.7h1.7v5.7c0,0.5,0.1,0.9,0.4,1.3c0.3,0.3,0.8,0.4,1.2,0.4c0.5,0,0.9-0.1,1.3-0.5c0.3-0.3,0.5-0.8,0.4-1.3v-5.6
	C108.3,38.1,110.1,38.1,110.1,38.1z"/>
<path class="st7" d="M118.8,46.6h-1.7l-3.5-5.9l0,0v5.8h-1.7V38h1.7l3.4,6l0,0v-5.9h1.7L118.8,46.6z"/>
<path class="st7" d="M120.6,46.6v-8.5h2.8c1-0.1,2.1,0.3,2.8,1c0.7,0.7,1.1,1.7,1,2.7v1.1c0.1,1-0.3,2-1,2.7c-0.8,0.7-1.8,1.1-2.8,1
	H120.6z M122.3,39.4v5.9h0.9c0.6,0.1,1.3-0.2,1.7-0.6c0.4-0.5,0.6-1.1,0.5-1.8v-1.1c0-0.6-0.2-1.3-0.5-1.8c-0.4-0.5-1.1-0.7-1.7-0.6
	L122.3,39.4z"/>
<path class="st7" d="M133.4,44.8h-3l-0.6,1.9h-1.7l2.9-8.5h1.8l2.9,8.5H134L133.4,44.8z M130.8,43.5h2.2l-1.1-3.5l0,0L130.8,43.5z"
	/>
<path class="st7" d="M143.4,39.4h-2.7v7.2H139v-7.2h-2.7v-1.3h7.1L143.4,39.4z"/>
<path class="st7" d="M146.5,46.6h-1.7v-8.5h1.7V46.6z"/>
<path class="st7" d="M155.4,43.1c0,1-0.3,1.9-1,2.6c-0.7,0.7-1.6,1-2.6,1s-1.9-0.3-2.6-1c-0.7-0.7-1-1.6-1-2.6v-1.5
	c0-1,0.3-1.9,1-2.6c0.7-0.7,1.6-1,2.6-1s1.9,0.3,2.6,1c0.7,0.7,1,1.6,1,2.6V43.1z M153.6,41.6c0-0.6-0.1-1.2-0.5-1.6
	c-0.3-0.4-0.8-0.7-1.4-0.6c-0.5,0-1,0.2-1.4,0.6c-0.3,0.5-0.5,1.1-0.5,1.6v1.5c0,0.6,0.1,1.2,0.5,1.7c0.3,0.4,0.8,0.7,1.4,0.6
	c0.5,0,1.1-0.2,1.4-0.6c0.3-0.5,0.5-1.1,0.5-1.7V41.6z"/>
<path class="st7" d="M163.9,46.6h-1.7l-3.5-5.9l0,0v5.8H157V38h1.7l3.4,5.9l0,0V38h1.7L163.9,46.6z"/>
</svg>
