<?xml version="1.0" encoding="utf-8"?>
<!-- Generator: Adobe Illustrator 25.2.3, SVG Export Plug-In . SVG Version: 6.00 Build 0)  -->
<svg version="1.1" id="EN_-_KENNZEICHNUNG_quer__x2F__p_o_s_i_t_i_v"
	 xmlns="http://www.w3.org/2000/svg" xmlns:xlink="http://www.w3.org/1999/xlink" x="0px" y="0px" viewBox="0 0 335 78"
	 style="enable-background:new 0 0 335 78;" xml:space="preserve">
<style type="text/css">
	.st0{fill:#C6EAFB;}
	.st1{fill:#BF6D73;stroke:#FFFFFF;stroke-width:0.3;stroke-miterlimit:10;}
</style>
<g>
	<path class="st0" d="M29.9,16.2c0.3,0.2,0.7,0.3,1.2,0.3c0.6,0,1.2-0.3,1.2-1.1c0-1-2.4-1.2-2.4-2.5c0-0.8,0.7-1.4,1.7-1.4
		c0.3,0,0.7,0,1,0.2l-0.1,0.5c-0.2-0.1-0.6-0.2-1-0.2c-0.5,0-1.1,0.2-1.1,0.9c0,1.1,2.4,1.1,2.4,2.6c0,1.1-0.9,1.5-1.7,1.5
		c-0.5,0-0.9-0.1-1.2-0.2L29.9,16.2z"/>
	<path class="st0" d="M36.8,13.5c-0.3-0.1-0.6-0.2-0.8-0.2c-0.9,0-1.4,0.7-1.4,1.6c0,0.9,0.5,1.6,1.4,1.6c0.3,0,0.6-0.1,0.9-0.2v0.4
		c-0.3,0.1-0.6,0.1-1,0.1c-1.2,0-1.8-0.9-1.8-2c0-1.2,0.8-2,1.9-2c0.5,0,0.8,0.1,0.9,0.2L36.8,13.5z"/>
	<path class="st0" d="M38.2,11.2h0.5v2.4l0,0c0.2-0.4,0.6-0.7,1.2-0.7c1,0,1.3,0.7,1.3,1.6v2.3h-0.5v-2.3c0-0.7-0.1-1.2-0.9-1.2
		c-0.8,0-1.1,0.8-1.1,1.5v2h-0.5V11.2z"/>
	<path class="st0" d="M46.9,16.8h-0.6l-1-3.3l0,0l-1,3.3h-0.6L42.5,13H43l1,3.3l0,0l1.1-3.3h0.5l1,3.3l0,0l1.1-3.3h0.5L46.9,16.8z"
		/>
	<path class="st0" d="M52,16.7c-0.3,0.1-0.8,0.2-1.1,0.2c-1.3,0-1.7-0.9-1.7-2c0-1.2,0.6-2,1.6-2c1.1,0,1.5,0.9,1.5,1.9V15h-2.7
		c0,0.8,0.4,1.5,1.3,1.5c0.3,0,0.8-0.1,1.1-0.3C52,16.2,52,16.7,52,16.7z M51.7,14.7c0-0.7-0.3-1.3-1-1.3s-1.1,0.7-1.1,1.3H51.7z"/>
	<path class="st0" d="M54.2,12h-0.5v-0.6h0.5V12z M53.8,13h0.5v3.8h-0.5V13z"/>
	<path class="st0" d="M55.6,16.4l2.3-3h-2.2V13h2.8v0.4l-2.3,3h2.3v0.4h-2.9C55.6,16.8,55.6,16.4,55.6,16.4z"/>
	<path class="st0" d="M62.5,16.7c-0.3,0.1-0.8,0.2-1.1,0.2c-1.3,0-1.7-0.9-1.7-2c0-1.2,0.6-2,1.6-2c1.1,0,1.5,0.9,1.5,1.9V15h-2.6
		c0,0.8,0.4,1.5,1.3,1.5c0.3,0,0.8-0.1,1.1-0.3L62.5,16.7L62.5,16.7z M62.3,14.7c0-0.7-0.3-1.3-1-1.3s-1.1,0.7-1.1,1.3H62.3z"/>
	<path class="st0" d="M64.3,13.9c0-0.4,0-0.6,0-0.9h0.5v0.7l0,0c0.2-0.4,0.5-0.8,1-0.8c0.1,0,0.2,0,0.3,0v0.5c-0.1,0-0.2,0-0.3,0
		c-0.8,0-1,0.8-1,1.5v1.9h-0.5V13.9z"/>
	<path class="st0" d="M67.8,12h-0.5v-0.6h0.5V12z M67.3,13h0.5v3.8h-0.5V13z"/>
	<path class="st0" d="M69.3,16.3c0.3,0.1,0.6,0.2,1,0.2c0.5,0,0.8-0.2,0.8-0.7c0-0.9-1.8-0.8-1.8-1.9c0-0.8,0.6-1,1.2-1
		c0.2,0,0.6,0,0.9,0.2v0.4c-0.2-0.1-0.6-0.2-0.8-0.2c-0.5,0-0.8,0.2-0.8,0.6c0,0.7,1.9,0.6,1.9,1.9c0,0.8-0.8,1.1-1.3,1.1
		c-0.4,0-0.7,0-1.1-0.2L69.3,16.3z"/>
	<path class="st0" d="M75.6,13.5c-0.3-0.1-0.6-0.2-0.8-0.2c-0.9,0-1.4,0.7-1.4,1.6c0,0.9,0.5,1.6,1.4,1.6c0.3,0,0.6-0.1,0.9-0.2v0.4
		c-0.3,0.1-0.6,0.1-1,0.1c-1.2,0-1.8-0.9-1.8-2c0-1.2,0.8-2,1.9-2c0.5,0,0.8,0.1,0.9,0.2L75.6,13.5z"/>
	<path class="st0" d="M77,11.2h0.5v2.4l0,0c0.2-0.4,0.6-0.7,1.2-0.7c1,0,1.3,0.7,1.3,1.6v2.3h-0.5v-2.3c0-0.7-0.1-1.2-0.9-1.2
		s-1.1,0.8-1.1,1.5v2H77V11.2z"/>
	<path class="st0" d="M84.3,16.7c-0.3,0.1-0.8,0.2-1.1,0.2c-1.3,0-1.7-0.9-1.7-2c0-1.2,0.6-2,1.6-2c1.1,0,1.5,0.9,1.5,1.9V15H82
		c0,0.8,0.4,1.5,1.3,1.5c0.3,0,0.8-0.1,1.1-0.3L84.3,16.7L84.3,16.7z M84.1,14.7c0-0.7-0.3-1.3-1-1.3S82,14.1,82,14.7H84.1z"/>
	<path class="st0" d="M88.6,11.6h2.6V12h-2v1.9h1.9v0.5h-1.9v2h2.1v0.5h-2.7V11.6z"/>
	<path class="st0" d="M93.4,12h-0.5v-0.6h0.5V12z M92.9,13h0.5v3.8h-0.5V13z"/>
	<path class="st0" d="M98.2,16.8h-0.5v-0.6l0,0c-0.3,0.5-0.6,0.7-1.2,0.7c-1.1,0-1.6-0.9-1.6-2c0-1.2,0.5-2,1.6-2
		c0.8,0,1.1,0.5,1.2,0.7l0,0v-2.4h0.5V16.8z M96.6,16.5c0.8,0,1.1-0.9,1.1-1.6c0-0.7-0.3-1.6-1.1-1.6c-0.9,0-1.1,0.9-1.1,1.6
		C95.4,15.7,95.7,16.5,96.6,16.5z"/>
	<path class="st0" d="M102.9,16.5c0,1.1-0.5,1.9-1.8,1.9c-0.5,0-1-0.1-1.2-0.2v-0.5c0.3,0.2,0.7,0.3,1.1,0.3c1.2,0,1.3-0.9,1.3-2
		l0,0c-0.3,0.6-0.7,0.8-1.2,0.8c-1.2,0-1.6-1.1-1.6-1.9c0-1.2,0.5-2,1.6-2c0.5,0,0.8,0.1,1.2,0.5l0,0V13h0.5L102.9,16.5L102.9,16.5z
		 M101.3,16.4c0.9,0,1.2-0.8,1.2-1.5c0-0.9-0.3-1.6-1.1-1.6c-0.9,0-1.1,0.9-1.1,1.6C100.2,15.7,100.5,16.4,101.3,16.4z"/>
	<path class="st0" d="M107.2,16.7c-0.3,0.1-0.8,0.2-1.1,0.2c-1.3,0-1.7-0.9-1.7-2c0-1.2,0.6-2,1.6-2c1.1,0,1.5,0.9,1.5,1.9V15h-2.6
		c0,0.8,0.4,1.5,1.3,1.5c0.3,0,0.8-0.1,1.1-0.3v0.5H107.2z M107,14.7c0-0.7-0.3-1.3-1-1.3s-1.1,0.7-1.1,1.3H107z"/>
	<path class="st0" d="M109,13.9c0-0.3,0-0.6,0-0.9h0.5v0.7l0,0c0.2-0.3,0.4-0.8,1.2-0.8c0.9,0,1.3,0.6,1.3,1.5v2.4h-0.5v-2.3
		c0-0.7-0.3-1.2-0.9-1.2c-0.9,0-1.1,0.8-1.1,1.4v2.1H109V13.9z"/>
	<path class="st0" d="M115.2,12.9c1.2,0,1.8,1,1.8,2s-0.5,2-1.8,2c-1.2,0-1.8-1-1.8-2C113.5,13.9,114,12.9,115.2,12.9z M115.2,16.5
		c0.8,0,1.3-0.7,1.3-1.6c0-0.9-0.4-1.6-1.3-1.6s-1.3,0.7-1.3,1.6C114,15.8,114.4,16.5,115.2,16.5z"/>
	<path class="st0" d="M118.2,16.3c0.3,0.1,0.6,0.2,1,0.2c0.5,0,0.8-0.2,0.8-0.7c0-0.9-1.8-0.8-1.8-1.9c0-0.8,0.6-1,1.2-1
		c0.2,0,0.6,0,0.9,0.2v0.4c-0.2-0.1-0.6-0.2-0.8-0.2c-0.5,0-0.8,0.2-0.8,0.6c0,0.7,1.9,0.6,1.9,1.9c0,0.8-0.8,1.1-1.3,1.1
		c-0.4,0-0.7,0-1.1-0.2L118.2,16.3z"/>
	<path class="st0" d="M121.7,16.3c0.3,0.1,0.6,0.2,1,0.2c0.5,0,0.8-0.2,0.8-0.7c0-0.9-1.8-0.8-1.8-1.9c0-0.8,0.6-1,1.2-1
		c0.2,0,0.6,0,0.9,0.2v0.4c-0.2-0.1-0.6-0.2-0.8-0.2c-0.5,0-0.8,0.2-0.8,0.6c0,0.7,1.9,0.6,1.9,1.9c0,0.8-0.8,1.1-1.3,1.1
		c-0.4,0-0.7,0-1.1-0.2L121.7,16.3z"/>
	<path class="st0" d="M128.1,16.7c-0.3,0.1-0.8,0.2-1.1,0.2c-1.3,0-1.7-0.9-1.7-2c0-1.2,0.6-2,1.6-2c1.1,0,1.5,0.9,1.5,1.9V15h-2.6
		c0,0.8,0.4,1.5,1.3,1.5c0.3,0,0.8-0.1,1.1-0.3v0.5H128.1z M127.9,14.7c0-0.7-0.3-1.3-1-1.3s-1.1,0.7-1.1,1.3H127.9z"/>
	<path class="st0" d="M129.9,13.9c0-0.3,0-0.6,0-0.9h0.5v0.7l0,0c0.2-0.3,0.4-0.8,1.2-0.8c0.9,0,1.3,0.6,1.3,1.5v2.4h-0.5v-2.3
		c0-0.7-0.3-1.2-0.9-1.2c-0.9,0-1.1,0.8-1.1,1.4v2.1h-0.5V13.9z"/>
	<path class="st0" d="M134.3,16.3c0.3,0.1,0.6,0.2,1,0.2c0.5,0,0.8-0.2,0.8-0.7c0-0.9-1.8-0.8-1.8-1.9c0-0.8,0.6-1,1.2-1
		c0.2,0,0.6,0,0.9,0.2v0.4c-0.2-0.1-0.6-0.2-0.8-0.2c-0.5,0-0.8,0.2-0.8,0.6c0,0.7,1.9,0.6,1.9,1.9c0,0.8-0.8,1.1-1.3,1.1
		c-0.4,0-0.7,0-1.1-0.2L134.3,16.3z"/>
	<path class="st0" d="M140.6,13.5c-0.3-0.1-0.6-0.2-0.8-0.2c-0.9,0-1.4,0.7-1.4,1.6c0,0.9,0.5,1.6,1.4,1.6c0.3,0,0.6-0.1,0.9-0.2
		v0.4c-0.3,0.1-0.6,0.1-1,0.1c-1.2,0-1.8-0.9-1.8-2c0-1.2,0.8-2,1.9-2c0.5,0,0.8,0.1,0.9,0.2L140.6,13.5z"/>
	<path class="st0" d="M142,11.2h0.5v2.4l0,0c0.2-0.4,0.6-0.7,1.2-0.7c1,0,1.3,0.7,1.3,1.6v2.3h-0.5v-2.3c0-0.7-0.1-1.2-0.9-1.2
		c-0.8,0-1.1,0.8-1.1,1.5v2H142V11.2z"/>
	<path class="st0" d="M149,16.2L149,16.2c-0.2,0.5-0.8,0.7-1.2,0.7c-1.1,0-1.3-0.7-1.3-1.1c0-1.3,1.4-1.3,2.4-1.3h0.1v-0.2
		c0-0.7-0.2-1-0.9-1c-0.4,0-0.8,0.1-1.1,0.3v-0.5c0.3-0.1,0.8-0.3,1.1-0.3c0.9,0,1.3,0.4,1.3,1.4V16c0,0.3,0,0.5,0,0.8h-0.5
		L149,16.2L149,16.2z M148.9,14.9h-0.1c-0.8,0-1.8,0.1-1.8,0.9c0,0.5,0.4,0.7,0.8,0.7c1.1,0,1.1-1,1.1-1.4V14.9z"/>
	<path class="st0" d="M151.4,13.4h-0.8V13h0.8v-0.3c0-0.8,0-1.6,1-1.6c0.1,0,0.4,0,0.4,0.1v0.4c-0.1-0.1-0.2-0.1-0.4-0.1
		c-0.6,0-0.6,0.7-0.6,1.2V13h0.9v0.4h-0.9v3.4h-0.5v-3.4H151.4z"/>
	<path class="st0" d="M155.9,13.4H155v2.5c0,0.3,0.1,0.6,0.5,0.6c0.2,0,0.3,0,0.4-0.1v0.4c-0.1,0-0.3,0.1-0.6,0.1
		c-0.8,0-0.9-0.6-0.9-1.3v-2.2h-0.8V13h0.8v-0.9l0.5-0.2V13h0.9v0.4H155.9z"/>
	<path class="st0" d="M33.6,22.5c-0.3-0.2-0.8-0.2-1.2-0.2c-1.4,0-2.1,1-2.1,2.3s0.7,2.3,2.1,2.3c0.3,0,0.9,0,1.2-0.2v0.5
		c-0.3,0.2-0.9,0.2-1.2,0.2c-1.7,0-2.6-1.1-2.6-2.7s1-2.7,2.6-2.7c0.3,0,0.9,0.1,1.2,0.2V22.5z"/>
	<path class="st0" d="M36.8,23.3c1.2,0,1.8,1,1.8,2s-0.5,2-1.8,2s-1.8-1-1.8-2C35,24.2,35.6,23.3,36.8,23.3z M36.8,26.9
		c0.8,0,1.3-0.7,1.3-1.6s-0.4-1.6-1.3-1.6c-0.8,0-1.3,0.7-1.3,1.6C35.5,26.2,36,26.9,36.8,26.9z"/>
	<path class="st0" d="M40.1,24.3c0-0.3,0-0.6,0-0.9h0.5V24l0,0c0.2-0.3,0.4-0.8,1.2-0.8c0.9,0,1.3,0.6,1.3,1.5v2.4h-0.5v-2.3
		c0-0.7-0.3-1.2-0.9-1.2c-0.9,0-1.1,0.8-1.1,1.4v2.1h-0.5V24.3z"/>
	<path class="st0" d="M45.2,23.8h-0.8v-0.4h0.8v-0.3c0-0.8,0-1.6,1-1.6c0.2,0,0.4,0,0.4,0.1V22c-0.1-0.1-0.2-0.1-0.4-0.1
		c-0.6,0-0.6,0.7-0.6,1.1v0.3h0.9v0.4h-0.9v3.4h-0.5L45.2,23.8L45.2,23.8z"/>
	<path class="st0" d="M50.5,27.1c-0.3,0.1-0.8,0.2-1.1,0.2c-1.3,0-1.7-0.9-1.7-2c0-1.2,0.6-2,1.6-2c1.1,0,1.5,0.9,1.5,1.9v0.2h-2.6
		c0,0.8,0.4,1.5,1.3,1.5c0.3,0,0.8-0.1,1.1-0.3L50.5,27.1L50.5,27.1z M50.3,25c0-0.7-0.3-1.3-1-1.3s-1.1,0.7-1.1,1.3H50.3z
		 M49.5,21.9h0.6l-1,1.1h-0.3L49.5,21.9z"/>
	<path class="st0" d="M55.3,27.2h-0.5v-0.6l0,0c-0.3,0.5-0.6,0.7-1.2,0.7c-1.1,0-1.6-0.9-1.6-2c0-1.2,0.5-2,1.6-2
		c0.8,0,1.1,0.5,1.2,0.7l0,0v-2.4h0.5V27.2z M53.7,26.9c0.8,0,1.1-0.9,1.1-1.6s-0.3-1.6-1.1-1.6c-0.9,0-1.1,0.9-1.1,1.6
		S52.8,26.9,53.7,26.9z"/>
	<path class="st0" d="M59.6,27.1c-0.3,0.1-0.8,0.2-1.1,0.2c-1.3,0-1.7-0.9-1.7-2c0-1.2,0.6-2,1.6-2c1.1,0,1.5,0.9,1.5,1.9v0.2h-2.6
		c0,0.8,0.4,1.5,1.3,1.5c0.3,0,0.8-0.1,1.1-0.3L59.6,27.1C59.7,27.1,59.6,27.1,59.6,27.1z M59.3,25c0-0.7-0.3-1.3-1-1.3
		s-1.1,0.7-1.1,1.3H59.3z M58.6,21.9h0.6l-1,1.1h-0.3L58.6,21.9z"/>
	<path class="st0" d="M61.4,24.2c0-0.4,0-0.6,0-0.9h0.5V24l0,0c0.2-0.4,0.5-0.8,1-0.8c0.1,0,0.2,0,0.3,0v0.5c-0.1,0-0.2,0-0.3,0
		c-0.8,0-1,0.8-1,1.5v1.9h-0.5V24.2z"/>
	<path class="st0" d="M66.6,26.6L66.6,26.6c-0.2,0.5-0.8,0.7-1.2,0.7c-1.1,0-1.3-0.7-1.3-1.1c0-1.3,1.4-1.3,2.4-1.3h0.1v-0.2
		c0-0.7-0.2-1-0.9-1c-0.4,0-0.8,0.1-1.1,0.3v-0.5c0.3-0.1,0.8-0.3,1.1-0.3c0.9,0,1.3,0.4,1.3,1.4v1.7c0,0.3,0,0.5,0,0.8h-0.4V26.6z
		 M66.6,25.3L66.6,25.3c-0.9,0-1.9,0.1-1.9,0.9c0,0.5,0.4,0.7,0.8,0.7c1.1,0,1.1-1,1.1-1.4V25.3z"/>
	<path class="st0" d="M70.4,23.8h-0.8v2.5c0,0.3,0.1,0.6,0.5,0.6c0.2,0,0.3,0,0.4-0.1v0.4c-0.1,0-0.3,0.1-0.6,0.1
		c-0.8,0-0.9-0.6-0.9-1.3v-2.2h-0.8v-0.4H69v-0.9l0.5-0.2v1.1h0.9V23.8z"/>
	<path class="st0" d="M72.3,22.3h-0.5v-0.6h0.5V22.3z M71.9,23.4h0.5v3.8h-0.5V23.4z"/>
	<path class="st0" d="M75.6,23.3c1.2,0,1.8,1,1.8,2s-0.5,2-1.8,2c-1.2,0-1.8-1-1.8-2C73.8,24.2,74.4,23.3,75.6,23.3z M75.6,26.9
		c0.8,0,1.3-0.7,1.3-1.6s-0.4-1.6-1.3-1.6c-0.8,0-1.3,0.7-1.3,1.6C74.3,26.2,74.8,26.9,75.6,26.9z"/>
	<path class="st0" d="M78.9,24.3c0-0.3,0-0.6,0-0.9h0.5V24l0,0c0.2-0.3,0.4-0.8,1.2-0.8c0.9,0,1.3,0.6,1.3,1.5v2.4h-0.5v-2.3
		c0-0.7-0.3-1.2-0.9-1.2c-0.9,0-1.1,0.8-1.1,1.4v2.1h-0.5V24.3z"/>
	<path class="st0" d="M85.9,26.6c0.3,0.1,0.6,0.2,1,0.2c0.5,0,0.8-0.2,0.8-0.7c0-0.9-1.8-0.8-1.8-1.9c0-0.8,0.6-1,1.2-1
		c0.2,0,0.6,0,0.9,0.2v0.4c-0.2-0.1-0.6-0.2-0.8-0.2c-0.5,0-0.8,0.1-0.8,0.6c0,0.7,1.9,0.6,1.9,1.9c0,0.8-0.8,1.1-1.3,1.1
		c-0.4,0-0.7,0-1.1-0.2L85.9,26.6z"/>
	<path class="st0" d="M92.7,26.3c0,0.3,0,0.6,0,0.9h-0.5v-0.7l0,0c-0.2,0.3-0.4,0.8-1.2,0.8c-0.9,0-1.3-0.6-1.3-1.5v-2.4h0.5v2.3
		c0,0.7,0.3,1.2,0.9,1.2c0.9,0,1.1-0.8,1.1-1.4v-2.1h0.5V26.3z"/>
	<path class="st0" d="M95,22.3h-0.5v-0.6H95V22.3z M94.5,23.4H95v3.8h-0.5V23.4z"/>
	<path class="st0" d="M96.4,26.6c0.3,0.1,0.6,0.2,1,0.2c0.5,0,0.8-0.2,0.8-0.7c0-0.9-1.8-0.8-1.8-1.9c0-0.8,0.6-1,1.2-1
		c0.2,0,0.6,0,0.9,0.2v0.4c-0.2-0.1-0.6-0.2-0.8-0.2c-0.5,0-0.8,0.1-0.8,0.6c0,0.7,1.9,0.6,1.9,1.9c0,0.8-0.8,1.1-1.3,1.1
		c-0.4,0-0.7,0-1.1-0.2L96.4,26.6z"/>
	<path class="st0" d="M99.9,26.6c0.3,0.1,0.6,0.2,1,0.2c0.5,0,0.8-0.2,0.8-0.7c0-0.9-1.8-0.8-1.8-1.9c0-0.8,0.6-1,1.2-1
		c0.2,0,0.6,0,0.9,0.2v0.4c-0.2-0.1-0.6-0.2-0.8-0.2c-0.5,0-0.8,0.1-0.8,0.6c0,0.7,1.9,0.6,1.9,1.9c0,0.8-0.8,1.1-1.3,1.1
		c-0.4,0-0.7,0-1.1-0.2L99.9,26.6z"/>
	<path class="st0" d="M106.3,27.1c-0.3,0.1-0.8,0.2-1.1,0.2c-1.3,0-1.7-0.9-1.7-2c0-1.2,0.6-2,1.6-2c1.1,0,1.5,0.9,1.5,1.9v0.2H104
		c0,0.8,0.4,1.5,1.3,1.5c0.3,0,0.8-0.1,1.1-0.3L106.3,27.1C106.4,27.1,106.3,27.1,106.3,27.1z M106.1,25c0-0.7-0.3-1.3-1-1.3
		S104,24.4,104,25H106.1z"/>
	<path class="st0" d="M33.6,32.9c-0.3-0.2-0.8-0.2-1.2-0.2c-1.4,0-2.1,1-2.1,2.3s0.7,2.3,2.1,2.3c0.3,0,0.9,0,1.2-0.2v0.5
		c-0.3,0.2-0.9,0.2-1.2,0.2c-1.7,0-2.6-1.1-2.6-2.7c0-1.6,1-2.7,2.6-2.7c0.3,0,0.9,0.1,1.2,0.2V32.9z"/>
	<path class="st0" d="M36.8,33.6c1.2,0,1.8,1,1.8,2s-0.5,2-1.8,2s-1.8-1-1.8-2S35.6,33.6,36.8,33.6z M36.8,37.2
		c0.8,0,1.3-0.7,1.3-1.6c0-0.9-0.4-1.6-1.3-1.6c-0.8,0-1.3,0.7-1.3,1.6S36,37.2,36.8,37.2z"/>
	<path class="st0" d="M40.1,34.6c0-0.3,0-0.6,0-0.9h0.5v0.7l0,0c0.2-0.3,0.4-0.8,1.2-0.8c0.9,0,1.3,0.6,1.3,1.5v2.4h-0.5v-2.3
		c0-0.7-0.3-1.2-0.9-1.2c-0.9,0-1.1,0.8-1.1,1.4v2.1h-0.5V34.6z"/>
	<path class="st0" d="M45.2,34.1h-0.8v-0.4h0.8v-0.3c0-0.8,0-1.6,1-1.6c0.2,0,0.4,0,0.4,0.1v0.4c-0.1-0.1-0.2-0.1-0.4-0.1
		c-0.6,0-0.6,0.7-0.6,1.2v0.3h0.9v0.4h-0.9v3.4h-0.5L45.2,34.1L45.2,34.1z"/>
	<path class="st0" d="M50.5,37.4c-0.3,0.1-0.8,0.2-1.1,0.2c-1.3,0-1.7-0.9-1.7-2c0-1.2,0.6-2,1.6-2c1.1,0,1.5,0.9,1.5,1.9v0.2h-2.6
		c0,0.8,0.4,1.5,1.3,1.5c0.3,0,0.8-0.1,1.1-0.3L50.5,37.4L50.5,37.4z M50.3,35.4c0-0.7-0.3-1.3-1-1.3s-1.1,0.7-1.1,1.3H50.3z"/>
	<path class="st0" d="M55.3,37.5h-0.5v-0.6l0,0c-0.3,0.5-0.6,0.7-1.2,0.7c-1.1,0-1.6-0.9-1.6-2c0-1.2,0.5-2,1.6-2
		c0.8,0,1.1,0.5,1.2,0.7l0,0v-2.4h0.5V37.5z M53.7,37.2c0.8,0,1.1-0.9,1.1-1.6c0-0.7-0.3-1.6-1.1-1.6c-0.9,0-1.1,0.9-1.1,1.6
		C52.6,36.4,52.8,37.2,53.7,37.2z"/>
	<path class="st0" d="M59.6,37.4c-0.3,0.1-0.8,0.2-1.1,0.2c-1.3,0-1.7-0.9-1.7-2c0-1.2,0.6-2,1.6-2c1.1,0,1.5,0.9,1.5,1.9v0.2h-2.6
		c0,0.8,0.4,1.5,1.3,1.5c0.3,0,0.8-0.1,1.1-0.3L59.6,37.4C59.7,37.4,59.6,37.4,59.6,37.4z M59.3,35.4c0-0.7-0.3-1.3-1-1.3
		s-1.1,0.7-1.1,1.3H59.3z"/>
	<path class="st0" d="M61.4,34.6c0-0.4,0-0.6,0-0.9h0.5v0.7l0,0c0.2-0.4,0.5-0.8,1-0.8c0.1,0,0.2,0,0.3,0v0.5c-0.1,0-0.2,0-0.3,0
		c-0.8,0-1,0.8-1,1.5v1.9h-0.5V34.6z"/>
	<path class="st0" d="M66.6,36.9L66.6,36.9c-0.2,0.5-0.8,0.7-1.2,0.7c-1.1,0-1.3-0.7-1.3-1.1c0-1.3,1.4-1.3,2.4-1.3h0.1V35
		c0-0.7-0.2-1-0.9-1c-0.4,0-0.8,0.1-1.1,0.3v-0.5c0.3-0.1,0.8-0.3,1.1-0.3c0.9,0,1.3,0.4,1.3,1.4v1.7c0,0.3,0,0.5,0,0.8h-0.4V36.9z
		 M66.6,35.6L66.6,35.6c-0.9,0-1.9,0.1-1.9,0.9c0,0.5,0.4,0.7,0.8,0.7c1.1,0,1.1-1,1.1-1.4V35.6z"/>
	<path class="st0" d="M68.4,37.1l2.3-3h-2.2v-0.4h2.8v0.4l-2.3,3h2.3v0.4h-2.9C68.4,37.5,68.4,37.1,68.4,37.1z"/>
	<path class="st0" d="M73.2,32.7h-0.5v-0.6h0.5V32.7z M72.7,33.7h0.5v3.8h-0.5V33.7z"/>
	<path class="st0" d="M76.4,33.6c1.2,0,1.8,1,1.8,2s-0.5,2-1.8,2c-1.2,0-1.8-1-1.8-2S75.2,33.6,76.4,33.6z M76.4,37.2
		c0.8,0,1.3-0.7,1.3-1.6c0-0.9-0.4-1.6-1.3-1.6c-0.8,0-1.3,0.7-1.3,1.6C75.2,36.5,75.6,37.2,76.4,37.2z"/>
	<path class="st0" d="M79.7,34.6c0-0.3,0-0.6,0-0.9h0.5v0.7l0,0c0.2-0.3,0.4-0.8,1.2-0.8c0.9,0,1.3,0.6,1.3,1.5v2.4h-0.5v-2.3
		c0-0.7-0.3-1.2-0.9-1.2c-0.9,0-1.1,0.8-1.1,1.4v2.1h-0.5V34.6z"/>
	<path class="st0" d="M87,37.4c-0.3,0.1-0.8,0.2-1.1,0.2c-1.3,0-1.7-0.9-1.7-2c0-1.2,0.6-2,1.6-2c1.1,0,1.5,0.9,1.5,1.9v0.2h-2.6
		c0,0.8,0.4,1.5,1.3,1.5c0.3,0,0.8-0.1,1.1-0.3v0.5C87.1,37.4,87,37.4,87,37.4z M86.8,35.4c0-0.7-0.3-1.3-1-1.3s-1.1,0.7-1.1,1.3
		H86.8z"/>
	<path class="st0" d="M91.3,36.9c0.3,0.2,0.7,0.3,1.2,0.3c0.6,0,1.2-0.3,1.2-1.1c0-1-2.4-1.2-2.4-2.5c0-0.8,0.7-1.4,1.7-1.4
		c0.3,0,0.7,0,1,0.2l-0.1,0.5c-0.2-0.1-0.6-0.2-1-0.2c-0.5,0-1.1,0.2-1.1,0.9c0,1.1,2.4,1.1,2.4,2.6c0,1.1-0.9,1.5-1.7,1.5
		c-0.5,0-0.9-0.1-1.2-0.2V36.9z"/>
	<path class="st0" d="M97.1,37.5h-0.6l-1.3-3.8h0.5l1.1,3.3l0,0l1.1-3.3h0.5L97.1,37.5z"/>
	<path class="st0" d="M100.1,32.7h-0.5v-0.6h0.5V32.7z M99.6,33.7h0.5v3.8h-0.5V33.7z"/>
	<path class="st0" d="M101.5,37.1l2.3-3h-2.2v-0.4h2.8v0.4l-2.3,3h2.3v0.4h-2.9C101.5,37.5,101.5,37.1,101.5,37.1z"/>
	<path class="st0" d="M105.5,37.1l2.3-3h-2.2v-0.4h2.8v0.4l-2.3,3h2.3v0.4h-2.9C105.5,37.5,105.5,37.1,105.5,37.1z"/>
	<path class="st0" d="M112.3,37.4c-0.3,0.1-0.8,0.2-1.1,0.2c-1.3,0-1.7-0.9-1.7-2c0-1.2,0.6-2,1.6-2c1.1,0,1.5,0.9,1.5,1.9v0.2H110
		c0,0.8,0.4,1.5,1.3,1.5c0.3,0,0.8-0.1,1.1-0.3L112.3,37.4C112.4,37.4,112.3,37.4,112.3,37.4z M112.1,35.4c0-0.7-0.3-1.3-1-1.3
		s-1.1,0.7-1.1,1.3H112.1z"/>
	<path class="st0" d="M114.1,34.6c0-0.4,0-0.6,0-0.9h0.5v0.7l0,0c0.2-0.4,0.5-0.8,1-0.8c0.1,0,0.2,0,0.3,0v0.5c-0.1,0-0.2,0-0.3,0
		c-0.8,0-1,0.8-1,1.5v1.9h-0.5V34.6z"/>
	<path class="st0" d="M119.3,36.9L119.3,36.9c-0.2,0.5-0.8,0.7-1.2,0.7c-1.1,0-1.3-0.7-1.3-1.1c0-1.3,1.4-1.3,2.4-1.3h0.1V35
		c0-0.7-0.2-1-0.9-1c-0.4,0-0.8,0.1-1.1,0.3v-0.5c0.3-0.1,0.8-0.3,1.1-0.3c0.9,0,1.3,0.4,1.3,1.4v1.7c0,0.3,0,0.5,0,0.8h-0.5
		L119.3,36.9L119.3,36.9z M119.3,35.6L119.3,35.6c-0.9,0-1.9,0.1-1.9,0.9c0,0.5,0.4,0.7,0.8,0.7c1.1,0,1.1-1,1.1-1.4V35.6z"/>
	<path class="st0" d="M33.6,43.2C33.3,43,32.8,43,32.4,43c-1.4,0-2.1,1-2.1,2.3s0.7,2.3,2.1,2.3c0.3,0,0.9,0,1.2-0.2v0.4
		C33.3,48,32.7,48,32.4,48c-1.7,0-2.6-1.1-2.6-2.7c0-1.6,1-2.7,2.6-2.7c0.3,0,0.9,0.1,1.2,0.2C33.6,42.8,33.6,43.2,33.6,43.2z"/>
	<path class="st0" d="M36.8,44c1.2,0,1.8,1,1.8,2s-0.5,2-1.8,2S35,47,35,46C35,44.9,35.6,44,36.8,44z M36.8,47.6
		c0.8,0,1.3-0.7,1.3-1.6c0-0.9-0.4-1.6-1.3-1.6c-0.8,0-1.3,0.7-1.3,1.6C35.5,46.9,36,47.6,36.8,47.6z"/>
	<path class="st0" d="M40.1,45c0-0.3,0-0.6,0-0.9h0.5v0.7l0,0c0.2-0.3,0.4-0.8,1.2-0.8c0.9,0,1.3,0.6,1.3,1.5v2.4h-0.5v-2.3
		c0-0.7-0.3-1.2-0.9-1.2c-0.9,0-1.1,0.8-1.1,1.4v2.1h-0.5V45z"/>
	<path class="st0" d="M45.2,44.5h-0.8v-0.4h0.8v-0.3c0-0.8,0-1.6,1-1.6c0.2,0,0.4,0,0.4,0.1v0.4c-0.1-0.1-0.2-0.1-0.4-0.1
		c-0.6,0-0.6,0.7-0.6,1.2v0.3h0.9v0.4h-0.9v3.4h-0.5L45.2,44.5L45.2,44.5z"/>
	<path class="st0" d="M50.5,47.8c-0.3,0.1-0.8,0.2-1.1,0.2c-1.3,0-1.7-0.9-1.7-2c0-1.2,0.6-2,1.6-2c1.1,0,1.5,0.9,1.5,1.9v0.2h-2.6
		c0,0.8,0.4,1.5,1.3,1.5c0.3,0,0.8-0.1,1.1-0.3L50.5,47.8L50.5,47.8z M50.3,45.7c0-0.7-0.3-1.3-1-1.3s-1.1,0.7-1.1,1.3H50.3z"/>
	<path class="st0" d="M55.3,47.9h-0.5v-0.6l0,0c-0.3,0.5-0.6,0.7-1.2,0.7c-1.1,0-1.6-0.9-1.6-2c0-1.2,0.5-2,1.6-2
		c0.8,0,1.1,0.5,1.2,0.7l0,0v-2.4h0.5V47.9z M53.7,47.6c0.8,0,1.1-0.9,1.1-1.6c0-0.7-0.3-1.6-1.1-1.6c-0.9,0-1.1,0.9-1.1,1.6
		C52.6,46.7,52.8,47.6,53.7,47.6z"/>
	<path class="st0" d="M59.6,47.8c-0.3,0.1-0.8,0.2-1.1,0.2c-1.3,0-1.7-0.9-1.7-2c0-1.2,0.6-2,1.6-2c1.1,0,1.5,0.9,1.5,1.9v0.2h-2.6
		c0,0.8,0.4,1.5,1.3,1.5c0.3,0,0.8-0.1,1.1-0.3L59.6,47.8C59.7,47.8,59.6,47.8,59.6,47.8z M59.3,45.7c0-0.7-0.3-1.3-1-1.3
		s-1.1,0.7-1.1,1.3H59.3z"/>
	<path class="st0" d="M61.4,44.9c0-0.4,0-0.6,0-0.9h0.5v0.7l0,0c0.2-0.4,0.5-0.8,1-0.8c0.1,0,0.2,0,0.3,0v0.5c-0.1,0-0.2,0-0.3,0
		c-0.8,0-1,0.8-1,1.5v1.9h-0.5V44.9z"/>
	<path class="st0" d="M66.6,47.3L66.6,47.3c-0.2,0.5-0.8,0.7-1.2,0.7c-1.1,0-1.3-0.7-1.3-1.1c0-1.3,1.4-1.3,2.4-1.3h0.1v-0.2
		c0-0.7-0.2-1-0.9-1c-0.4,0-0.8,0.1-1.1,0.3v-0.5c0.3-0.1,0.8-0.3,1.1-0.3c0.9,0,1.3,0.4,1.3,1.4V47c0,0.3,0,0.5,0,0.8h-0.4V47.3z
		 M66.6,46L66.6,46c-0.9,0-1.9,0.1-1.9,0.9c0,0.5,0.4,0.7,0.8,0.7c1.1,0,1.1-1,1.1-1.4V46z"/>
	<path class="st0" d="M68.4,47.5l2.3-3h-2.2v-0.4h2.8v0.4l-2.3,3h2.3v0.4h-2.9C68.4,47.9,68.4,47.5,68.4,47.5z"/>
	<path class="st0" d="M73.2,43h-0.5v-0.6h0.5V43z M72.7,44.1h0.5v3.8h-0.5V44.1z"/>
	<path class="st0" d="M77.9,47c0,0.3,0,0.6,0,0.9h-0.5v-0.7l0,0C77.2,47.5,77,48,76.2,48c-0.9,0-1.3-0.6-1.3-1.5v-2.4h0.5v2.3
		c0,0.7,0.3,1.2,0.9,1.2c0.9,0,1.1-0.8,1.1-1.4v-2.1h0.5C77.9,44.1,77.9,47,77.9,47z"/>
	<path class="st0" d="M79.7,45c0-0.3,0-0.6,0-0.9h0.5v0.7l0,0c0.2-0.3,0.4-0.8,1.2-0.8c0.9,0,1.3,0.6,1.3,1.5v2.4h-0.5v-2.3
		c0-0.7-0.3-1.2-0.9-1.2c-0.9,0-1.1,0.8-1.1,1.4v2.1h-0.5V45z"/>
	<path class="st0" d="M86.8,47.3c0.3,0.1,0.6,0.2,1,0.2c0.5,0,0.8-0.2,0.8-0.7c0-0.9-1.8-0.8-1.8-1.9c0-0.8,0.6-1,1.2-1
		c0.2,0,0.6,0,0.9,0.2v0.4c-0.2-0.1-0.6-0.2-0.8-0.2c-0.5,0-0.8,0.2-0.8,0.6c0,0.7,1.9,0.6,1.9,1.9c0,0.8-0.8,1.1-1.3,1.1
		c-0.4,0-0.7,0-1.1-0.2L86.8,47.3z"/>
	<path class="st0" d="M91.9,47.9h-0.6L90,44.1h0.5l1.1,3.3l0,0l1.1-3.3h0.5L91.9,47.9z"/>
	<path class="st0" d="M94.9,43h-0.5v-0.6h0.5V43z M94.5,44.1H95v3.8h-0.5V44.1z"/>
	<path class="st0" d="M96.4,47.5l2.3-3h-2.2v-0.4h2.8v0.4l-2.3,3h2.3v0.4h-2.9C96.4,47.9,96.4,47.5,96.4,47.5z"/>
	<path class="st0" d="M100.6,44.9c0-0.4,0-0.6,0-0.9h0.5v0.7l0,0c0.2-0.4,0.5-0.8,1-0.8c0.1,0,0.2,0,0.3,0v0.5c-0.1,0-0.2,0-0.3,0
		c-0.8,0-1,0.8-1,1.5v1.9h-0.5V44.9z"/>
	<path class="st0" d="M105.9,47.3L105.9,47.3c-0.2,0.5-0.8,0.7-1.2,0.7c-1.1,0-1.3-0.7-1.3-1.1c0-1.3,1.4-1.3,2.4-1.3h0.1v-0.2
		c0-0.7-0.2-1-0.9-1c-0.4,0-0.8,0.1-1.1,0.3v-0.5c0.3-0.1,0.8-0.3,1.1-0.3c0.9,0,1.3,0.4,1.3,1.4V47c0,0.3,0,0.5,0,0.8h-0.5
		L105.9,47.3L105.9,47.3z M105.9,46L105.9,46c-0.9,0-1.9,0.1-1.9,0.9c0,0.5,0.4,0.7,0.8,0.7c1.1,0,1.1-1,1.1-1.4V46z"/>
	<path class="st0" d="M29.8,67.9c0.3,0.2,0.7,0.3,1.2,0.3c0.6,0,1.2-0.3,1.2-1.1c0-1-2.4-1.2-2.4-2.5c0-0.8,0.7-1.4,1.7-1.4
		c0.3,0,0.7,0,1,0.2l-0.1,0.5c-0.2-0.1-0.6-0.2-1-0.2c-0.5,0-1.1,0.2-1.1,0.9c0,1.1,2.4,1.1,2.4,2.6c0,1.1-0.9,1.5-1.7,1.5
		c-0.5,0-0.9-0.1-1.2-0.2V67.9z"/>
	<path class="st0" d="M38.2,68.6h-0.6l-1-3.3l0,0l-1,3.3H35l-1.2-3.8h0.5l1,3.3l0,0l1.1-3.3H37l1,3.3l0,0l1.1-3.3h0.5L38.2,68.6z"/>
	<path class="st0" d="M41.2,63.7h-0.5v-0.6h0.5V63.7z M40.7,64.8h0.5v3.8h-0.5V64.8z"/>
	<path class="st0" d="M42.6,68c0.3,0.1,0.6,0.2,1,0.2c0.5,0,0.8-0.2,0.8-0.7c0-0.9-1.8-0.8-1.8-1.9c0-0.8,0.6-1,1.2-1
		c0.2,0,0.6,0,0.9,0.2v0.4c-0.2-0.1-0.6-0.2-0.8-0.2c-0.5,0-0.8,0.2-0.8,0.6c0,0.7,1.9,0.6,1.9,1.9c0,0.8-0.8,1.1-1.3,1.1
		c-0.4,0-0.7,0-1.1-0.2L42.6,68z"/>
	<path class="st0" d="M46.1,68c0.3,0.1,0.6,0.2,1,0.2c0.5,0,0.8-0.2,0.8-0.7c0-0.9-1.8-0.8-1.8-1.9c0-0.8,0.6-1,1.2-1
		c0.2,0,0.6,0,0.9,0.2v0.4C48,65.1,47.6,65,47.4,65c-0.5,0-0.8,0.2-0.8,0.6c0,0.7,1.9,0.6,1.9,1.9c0,0.8-0.8,1.1-1.3,1.1
		c-0.4,0-0.7,0-1.1-0.2L46.1,68z"/>
	<path class="st0" d="M56.3,63.9c-0.3-0.2-0.8-0.2-1.2-0.2c-1.4,0-2.1,1-2.1,2.3s0.7,2.3,2.1,2.3c0.3,0,0.9,0,1.2-0.2v0.5
		c-0.3,0.2-0.9,0.2-1.2,0.2c-1.7,0-2.6-1.1-2.6-2.7s1-2.7,2.6-2.7c0.3,0,0.9,0.1,1.2,0.2V63.9z"/>
	<path class="st0" d="M59.7,64.7c1.2,0,1.8,1,1.8,2s-0.5,2-1.8,2c-1.2,0-1.8-1-1.8-2C57.9,65.6,58.5,64.7,59.7,64.7z M59.7,68.3
		c0.8,0,1.3-0.7,1.3-1.6s-0.4-1.6-1.3-1.6s-1.3,0.7-1.3,1.6C58.4,67.6,58.9,68.3,59.7,68.3z"/>
	<path class="st0" d="M63,65.7c0-0.3,0-0.6,0-0.9h0.5v0.7l0,0c0.2-0.3,0.4-0.8,1.2-0.8c0.9,0,1.3,0.6,1.3,1.5v2.4h-0.5v-2.3
		c0-0.7-0.3-1.2-0.9-1.2c-0.9,0-1.1,0.8-1.1,1.4v2.1H63V65.7z"/>
	<path class="st0" d="M68,65.2h-0.8v-0.4H68v-0.3c0-0.8,0-1.6,1-1.6c0.2,0,0.4,0,0.4,0.1v0.4c-0.1-0.1-0.2-0.1-0.4-0.1
		c-0.6,0-0.6,0.7-0.6,1.2v0.3h0.9v0.4h-0.9v3.4h-0.5L68,65.2L68,65.2z"/>
	<path class="st0" d="M73.4,68.5c-0.3,0.1-0.8,0.2-1.1,0.2c-1.3,0-1.7-0.9-1.7-2c0-1.2,0.6-2,1.6-2c1.1,0,1.5,0.9,1.5,1.9v0.2h-2.6
		c0,0.8,0.4,1.5,1.3,1.5c0.3,0,0.8-0.1,1.1-0.3v0.5C73.5,68.5,73.4,68.5,73.4,68.5z M73.1,66.4c0-0.7-0.3-1.3-1-1.3S71,65.8,71,66.4
		H73.1z"/>
	<path class="st0" d="M78.2,68.6h-0.5V68l0,0c-0.3,0.5-0.6,0.7-1.2,0.7c-1.1,0-1.6-0.9-1.6-2c0-1.2,0.5-2,1.6-2
		c0.8,0,1.1,0.5,1.2,0.7l0,0V63h0.5V68.6z M76.6,68.3c0.8,0,1.1-0.9,1.1-1.6s-0.3-1.6-1.1-1.6c-0.9,0-1.1,0.9-1.1,1.6
		C75.4,67.4,75.7,68.3,76.6,68.3z"/>
	<path class="st0" d="M82.5,68.5c-0.3,0.1-0.8,0.2-1.1,0.2c-1.3,0-1.7-0.9-1.7-2c0-1.2,0.6-2,1.6-2c1.1,0,1.5,0.9,1.5,1.9v0.2h-2.6
		c0,0.8,0.4,1.5,1.3,1.5c0.3,0,0.8-0.1,1.1-0.3v0.5C82.6,68.5,82.5,68.5,82.5,68.5z M82.2,66.4c0-0.7-0.3-1.3-1-1.3
		s-1.1,0.7-1.1,1.3H82.2z"/>
	<path class="st0" d="M84.2,65.6c0-0.4,0-0.6,0-0.9h0.5v0.7l0,0c0.2-0.4,0.5-0.8,1-0.8c0.1,0,0.2,0,0.3,0v0.5c-0.1,0-0.2,0-0.3,0
		c-0.8,0-1,0.8-1,1.5v1.9h-0.5V65.6z"/>
	<path class="st0" d="M89.5,68L89.5,68c-0.2,0.5-0.8,0.7-1.2,0.7c-1.1,0-1.3-0.7-1.3-1.1c0-1.3,1.4-1.3,2.4-1.3h0.1v-0.2
		c0-0.7-0.2-1-0.9-1c-0.4,0-0.8,0.1-1.1,0.3v-0.5c0.3-0.1,0.8-0.3,1.1-0.3c0.9,0,1.3,0.4,1.3,1.4v1.7c0,0.3,0,0.5,0,0.8h-0.5
		L89.5,68L89.5,68z M89.5,66.7L89.5,66.7c-0.9,0-1.9,0.1-1.9,0.9c0,0.5,0.4,0.7,0.8,0.7c1.1,0,1.1-1,1.1-1.4V66.7z"/>
	<path class="st0" d="M93.3,65.2h-0.9v2.5c0,0.3,0.1,0.6,0.5,0.6c0.2,0,0.3,0,0.4-0.1v0.4c-0.1,0-0.3,0.1-0.6,0.1
		c-0.8,0-0.9-0.6-0.9-1.3v-2.2H91v-0.4h0.8v-0.9l0.5-0.2v1.1h0.9L93.3,65.2L93.3,65.2z"/>
	<path class="st0" d="M95.2,63.7h-0.5v-0.6h0.5V63.7z M94.7,64.8h0.5v3.8h-0.5V64.8z"/>
	<path class="st0" d="M98.5,64.7c1.2,0,1.8,1,1.8,2s-0.5,2-1.8,2c-1.2,0-1.8-1-1.8-2C96.7,65.6,97.2,64.7,98.5,64.7z M98.5,68.3
		c0.8,0,1.3-0.7,1.3-1.6s-0.4-1.6-1.3-1.6c-0.8,0-1.3,0.7-1.3,1.6C97.2,67.6,97.7,68.3,98.5,68.3z"/>
	<path class="st0" d="M101.7,65.7c0-0.3,0-0.6,0-0.9h0.5v0.7l0,0c0.2-0.3,0.4-0.8,1.2-0.8c0.9,0,1.3,0.6,1.3,1.5v2.4h-0.5v-2.3
		c0-0.7-0.3-1.2-0.9-1.2c-0.9,0-1.1,0.8-1.1,1.4v2.1h-0.5V65.7z"/>
</g>
<g>
	<path class="st1" d="M21.2,11.4c0,0-4-1.7-10.6-1.7l0,0C4,9.7,0,11.4,0,11.4s-0.4,7.7,1.2,12c2.7,7.7,9.5,9.8,9.5,9.8l0,0l0,0
		c0,0,6.8-2.1,9.5-9.8C21.6,19.1,21.2,11.4,21.2,11.4z"/>
	<polygon class="st0" points="17.7,18 17.7,22.2 12.7,22.2 12.7,27.2 8.5,27.2 8.5,22.2 3.5,22.2 3.5,18 8.5,18 8.5,13.1 12.7,13.1 
		12.7,18 	"/>
</g>
<g>
	<path class="st0" d="M177.2,11.6h2.5V12h-2v1.9h1.9v0.5h-1.9v2.5h-0.5V11.6z"/>
	<path class="st0" d="M183.7,16.7c-0.3,0.1-0.8,0.2-1.1,0.2c-1.3,0-1.7-0.9-1.7-2c0-1.2,0.6-2,1.6-2c1.1,0,1.5,0.9,1.5,1.9V15h-2.6
		c0,0.8,0.4,1.5,1.3,1.5c0.3,0,0.8-0.1,1.1-0.3v0.5H183.7z M183.5,14.6c0-0.7-0.3-1.3-1-1.3s-1.1,0.7-1.1,1.3H183.5z"/>
	<path class="st0" d="M188.5,16.8H188v-0.6l0,0c-0.3,0.5-0.6,0.7-1.2,0.7c-1.1,0-1.6-0.9-1.6-2c0-1.2,0.5-2,1.6-2
		c0.8,0,1.1,0.5,1.2,0.7l0,0v-2.4h0.5V16.8z M186.9,16.5c0.8,0,1.1-0.9,1.1-1.6c0-0.7-0.3-1.6-1.1-1.6c-0.9,0-1.1,0.9-1.1,1.6
		C185.8,15.7,186,16.5,186.9,16.5z"/>
	<path class="st0" d="M192.8,16.7c-0.3,0.1-0.8,0.2-1.1,0.2c-1.3,0-1.7-0.9-1.7-2c0-1.2,0.6-2,1.6-2c1.1,0,1.5,0.9,1.5,1.9V15h-2.6
		c0,0.8,0.4,1.5,1.3,1.5c0.3,0,0.8-0.1,1.1-0.3v0.5H192.8z M192.6,14.6c0-0.7-0.3-1.3-1-1.3s-1.1,0.7-1.1,1.3H192.6z"/>
	<path class="st0" d="M194.6,13.9c0-0.4,0-0.6,0-0.9h0.5v0.7l0,0c0.2-0.4,0.5-0.8,1-0.8c0.1,0,0.2,0,0.3,0v0.5c-0.1,0-0.2,0-0.3,0
		c-0.8,0-1,0.8-1,1.5v1.9h-0.5V13.9z"/>
	<path class="st0" d="M199.9,16.2L199.9,16.2c-0.2,0.5-0.8,0.7-1.2,0.7c-1.1,0-1.3-0.7-1.3-1.1c0-1.3,1.4-1.3,2.4-1.3h0.1v-0.2
		c0-0.7-0.2-1-0.9-1c-0.4,0-0.8,0.1-1.1,0.3v-0.5c0.3-0.1,0.8-0.3,1.1-0.3c0.9,0,1.3,0.4,1.3,1.4V16c0,0.3,0,0.5,0,0.8h-0.5
		L199.9,16.2L199.9,16.2z M199.8,14.9h-0.1c-0.8,0-1.8,0.1-1.8,0.9c0,0.5,0.4,0.7,0.8,0.7c1.1,0,1.1-1,1.1-1.4V14.9z"/>
	<path class="st0" d="M202,11.2h0.5v5.6H202V11.2z"/>
	<path class="st0" d="M206.9,11.6h1.3c1.9,0,2.6,1.1,2.6,2.6c0,1.9-1.3,2.6-3,2.6h-0.9L206.9,11.6L206.9,11.6z M207.4,16.4h0.4
		c1.5,0,2.5-0.6,2.5-2.2s-1-2.1-2.1-2.1h-0.8L207.4,16.4L207.4,16.4z"/>
	<path class="st0" d="M215.1,16.7c-0.3,0.1-0.8,0.2-1.1,0.2c-1.3,0-1.7-0.9-1.7-2c0-1.2,0.6-2,1.6-2c1.1,0,1.5,0.9,1.5,1.9V15h-2.6
		c0,0.8,0.4,1.5,1.3,1.5c0.3,0,0.8-0.1,1.1-0.3v0.5H215.1z M214.8,14.6c0-0.7-0.3-1.3-1-1.3s-1.1,0.7-1.1,1.3H214.8z"/>
	<path class="st0" d="M216.8,13h0.5v0.7l0,0c0.1-0.2,0.4-0.8,1.2-0.8c1.1,0,1.6,0.8,1.6,2c0,1.1-0.5,2-1.6,2c-0.6,0-1-0.2-1.2-0.7
		l0,0v2.2h-0.5V13z M218.4,13.3c-0.8,0-1.1,0.9-1.1,1.6c0,0.7,0.3,1.6,1.1,1.6c0.9,0,1.1-0.9,1.1-1.6
		C219.5,14.2,219.3,13.3,218.4,13.3z"/>
	<path class="st0" d="M223.8,16.2L223.8,16.2c-0.2,0.5-0.8,0.7-1.2,0.7c-1.1,0-1.3-0.7-1.3-1.1c0-1.3,1.4-1.3,2.4-1.3h0.1v-0.2
		c0-0.7-0.2-1-0.9-1c-0.4,0-0.8,0.1-1.1,0.3v-0.5c0.3-0.1,0.8-0.3,1.1-0.3c0.9,0,1.3,0.4,1.3,1.4V16c0,0.3,0,0.5,0,0.8h-0.5
		L223.8,16.2L223.8,16.2z M223.8,14.9h-0.2c-0.8,0-1.8,0.1-1.8,0.9c0,0.5,0.4,0.7,0.8,0.7c1.1,0,1.1-1,1.1-1.4L223.8,14.9
		L223.8,14.9z"/>
	<path class="st0" d="M225.9,13.9c0-0.4,0-0.6,0-0.9h0.5v0.7l0,0c0.2-0.4,0.5-0.8,1-0.8c0.1,0,0.2,0,0.3,0v0.5c-0.1,0-0.2,0-0.3,0
		c-0.8,0-1,0.8-1,1.5v1.9h-0.5V13.9z"/>
	<path class="st0" d="M230.7,13.4h-0.9v2.5c0,0.3,0.1,0.6,0.5,0.6c0.2,0,0.3,0,0.4-0.1v0.4c-0.1,0-0.3,0.1-0.6,0.1
		c-0.8,0-0.9-0.6-0.9-1.3v-2.2h-0.6V13h0.8v-0.9l0.5-0.2V13h0.9L230.7,13.4L230.7,13.4z"/>
	<path class="st0" d="M236.7,16.8v-2.5c0-0.5-0.2-1-0.8-1c-0.5,0-1,0.4-1,1.4v2.1h-0.5v-2.5c0-0.5-0.2-1-0.8-1c-0.5,0-1,0.4-1,1.4
		v2.1h-0.5v-2.9c0-0.3,0-0.6,0-0.9h0.5v0.6l0,0c0.2-0.3,0.4-0.7,1.2-0.7c0.3,0,0.9,0.1,1,0.8l0,0c0.2-0.5,0.6-0.8,1.2-0.8
		c0.8,0,1.2,0.5,1.2,1.3v2.6C237.2,16.8,236.7,16.8,236.7,16.8z"/>
	<path class="st0" d="M241.5,16.7c-0.3,0.1-0.8,0.2-1.1,0.2c-1.3,0-1.7-0.9-1.7-2c0-1.2,0.6-2,1.6-2c1.1,0,1.5,0.9,1.5,1.9V15h-2.6
		c0,0.8,0.4,1.5,1.3,1.5c0.3,0,0.8-0.1,1.1-0.3v0.5H241.5z M241.3,14.6c0-0.7-0.3-1.3-1-1.3s-1.1,0.7-1.1,1.3H241.3z"/>
	<path class="st0" d="M243.3,13.9c0-0.3,0-0.6,0-0.9h0.5v0.7l0,0c0.2-0.3,0.4-0.8,1.2-0.8c0.9,0,1.3,0.6,1.3,1.5v2.4h-0.5v-2.3
		c0-0.7-0.3-1.2-0.9-1.2c-0.9,0-1.1,0.8-1.1,1.4v2.1h-0.5V13.9L243.3,13.9z"/>
	<path class="st0" d="M249.7,13.4h-0.9v2.5c0,0.3,0.1,0.6,0.5,0.6c0.2,0,0.3,0,0.4-0.1v0.4c-0.1,0-0.3,0.1-0.6,0.1
		c-0.8,0-0.9-0.6-0.9-1.3v-2.2h-0.6V13h0.8v-0.9l0.5-0.2V13h0.9L249.7,13.4L249.7,13.4z"/>
	<path class="st0" d="M255.3,12.9c1.2,0,1.8,1,1.8,2s-0.5,2-1.8,2c-1.2,0-1.8-1-1.8-2S254.1,12.9,255.3,12.9z M255.3,16.5
		c0.8,0,1.3-0.7,1.3-1.6c0-0.9-0.4-1.6-1.3-1.6c-0.8,0-1.3,0.7-1.3,1.6S254.5,16.5,255.3,16.5z"/>
	<path class="st0" d="M258.9,13.4h-0.8V13h0.8v-0.3c0-0.8,0-1.6,1-1.6c0.1,0,0.4,0,0.4,0.1v0.4c-0.1-0.1-0.2-0.1-0.4-0.1
		c-0.6,0-0.6,0.7-0.6,1.2V13h0.9v0.4h-0.9v3.4h-0.5v-3.4H258.9z"/>
	<path class="st0" d="M264.4,11.6h2.6V12h-2v1.9h1.9v0.5H265v2h2.1v0.5h-2.7V11.6z"/>
	<path class="st0" d="M271.1,13.5c-0.3-0.1-0.6-0.2-0.8-0.2c-0.9,0-1.4,0.7-1.4,1.6c0,0.9,0.5,1.6,1.4,1.6c0.3,0,0.6-0.1,0.9-0.2
		v0.4c-0.3,0.1-0.6,0.1-1,0.1c-1.2,0-1.8-0.9-1.8-2c0-1.2,0.8-2,1.9-2c0.5,0,0.8,0.1,0.9,0.2L271.1,13.5z"/>
	<path class="st0" d="M274.1,12.9c1.2,0,1.8,1,1.8,2s-0.5,2-1.8,2c-1.2,0-1.8-1-1.8-2S272.8,12.9,274.1,12.9z M274.1,16.5
		c0.8,0,1.3-0.7,1.3-1.6c0-0.9-0.4-1.6-1.3-1.6c-0.8,0-1.3,0.7-1.3,1.6S273.2,16.5,274.1,16.5z"/>
	<path class="st0" d="M277.3,13.9c0-0.3,0-0.6,0-0.9h0.5v0.7l0,0c0.2-0.3,0.4-0.8,1.2-0.8c0.9,0,1.3,0.6,1.3,1.5v2.4h-0.5v-2.3
		c0-0.7-0.3-1.2-0.9-1.2c-0.9,0-1.1,0.8-1.1,1.4v2.1h-0.5V13.9z"/>
	<path class="st0" d="M283.6,12.9c1.2,0,1.8,1,1.8,2s-0.5,2-1.8,2c-1.2,0-1.8-1-1.8-2S282.3,12.9,283.6,12.9z M283.6,16.5
		c0.8,0,1.3-0.7,1.3-1.6c0-0.9-0.4-1.6-1.3-1.6c-0.8,0-1.3,0.7-1.3,1.6S282.7,16.5,283.6,16.5z"/>
	<path class="st0" d="M291.5,16.8v-2.5c0-0.5-0.2-1-0.8-1c-0.5,0-1,0.4-1,1.4v2.1h-0.5v-2.5c0-0.5-0.2-1-0.8-1c-0.5,0-1,0.4-1,1.4
		v2.1h-0.5v-2.9c0-0.3,0-0.6,0-0.9h0.5v0.6l0,0c0.2-0.3,0.4-0.7,1.2-0.7c0.3,0,0.9,0.1,1,0.8l0,0c0.2-0.5,0.6-0.8,1.2-0.8
		c0.8,0,1.2,0.5,1.2,1.3v2.6C292,16.8,291.5,16.8,291.5,16.8z"/>
	<path class="st0" d="M294.1,12h-0.5v-0.6h0.5V12z M293.7,13h0.5v3.8h-0.5V13z"/>
	<path class="st0" d="M298.4,13.5c-0.3-0.1-0.6-0.2-0.8-0.2c-0.9,0-1.4,0.7-1.4,1.6c0,0.9,0.5,1.6,1.4,1.6c0.3,0,0.6-0.1,0.9-0.2
		v0.4c-0.3,0.1-0.6,0.1-1,0.1c-1.2,0-1.8-0.9-1.8-2c0-1.2,0.8-2,1.9-2c0.5,0,0.8,0.1,0.9,0.2L298.4,13.5z"/>
	<path class="st0" d="M304.2,11.6h0.6l2.1,5.2h-0.5l-0.6-1.4h-2.6l-0.6,1.4h-0.5L304.2,11.6z M304.4,12.1l-1.1,2.9h2.3L304.4,12.1z"
		/>
	<path class="st0" d="M308.4,13.4h-0.8V13h0.8v-0.3c0-0.8,0-1.6,1-1.6c0.1,0,0.4,0,0.4,0.1v0.4c-0.1-0.1-0.2-0.1-0.4-0.1
		c-0.6,0-0.6,0.7-0.6,1.2V13h0.9v0.4h-0.9v3.4h-0.5v-3.4H308.4z"/>
	<path class="st0" d="M311.4,13.4h-0.8V13h0.8v-0.3c0-0.8,0-1.6,1-1.6c0.1,0,0.4,0,0.4,0.1v0.4c-0.1-0.1-0.2-0.1-0.4-0.1
		c-0.6,0-0.6,0.7-0.6,1.2V13h0.9v0.4h-0.9v3.4h-0.5v-3.4H311.4z"/>
	<path class="st0" d="M316.3,16.2L316.3,16.2c-0.2,0.5-0.8,0.7-1.2,0.7c-1.1,0-1.3-0.7-1.3-1.1c0-1.3,1.4-1.3,2.4-1.3h0.1v-0.2
		c0-0.7-0.2-1-0.9-1c-0.4,0-0.8,0.1-1.1,0.3v-0.5c0.3-0.1,0.8-0.3,1.1-0.3c0.9,0,1.3,0.4,1.3,1.4V16c0,0.3,0,0.5,0,0.8h-0.5v-0.6
		C316.2,16.2,316.3,16.2,316.3,16.2z M316.3,14.9h-0.1c-0.8,0-1.8,0.1-1.8,0.9c0,0.5,0.4,0.7,0.8,0.7c1.1,0,1.1-1,1.1-1.4V14.9z"/>
	<path class="st0" d="M318.9,12h-0.5v-0.6h0.5V12z M318.5,13h0.5v3.8h-0.5V13z"/>
	<path class="st0" d="M320.7,13.9c0-0.4,0-0.6,0-0.9h0.5v0.7l0,0c0.2-0.4,0.5-0.8,1-0.8c0.1,0,0.2,0,0.3,0v0.5c-0.1,0-0.2,0-0.3,0
		c-0.8,0-1,0.8-1,1.5v1.9h-0.5V13.9z"/>
	<path class="st0" d="M323.5,16.3c0.3,0.1,0.6,0.2,1,0.2c0.5,0,0.8-0.2,0.8-0.7c0-0.9-1.8-0.8-1.8-1.9c0-0.8,0.6-1,1.2-1
		c0.2,0,0.6,0,0.9,0.2v0.4c-0.2-0.1-0.6-0.2-0.8-0.2c-0.5,0-0.8,0.2-0.8,0.6c0,0.7,1.9,0.6,1.9,1.9c0,0.8-0.8,1.1-1.3,1.1
		c-0.4,0-0.7,0-1.1-0.2L323.5,16.3z"/>
	<path class="st0" d="M327.6,16.2h0.6l-0.6,1.6h-0.5L327.6,16.2z"/>
	<path class="st0" d="M177.3,21.9h2.6v0.5h-2v1.9h1.9v0.5h-1.9v2h2.1v0.5h-2.7L177.3,21.9L177.3,21.9z"/>
	<path class="st0" d="M184.6,27.2h-0.5v-0.6l0,0c-0.3,0.5-0.6,0.7-1.2,0.7c-1.1,0-1.6-0.9-1.6-2c0-1.2,0.5-2,1.6-2
		c0.8,0,1.1,0.5,1.2,0.7l0,0v-2.4h0.5V27.2z M183,26.9c0.8,0,1.1-0.9,1.1-1.6s-0.3-1.6-1.1-1.6c-0.9,0-1.1,0.9-1.1,1.6
		S182.1,26.9,183,26.9z"/>
	<path class="st0" d="M189.3,26.3c0,0.3,0,0.6,0,0.9h-0.5v-0.7l0,0c-0.2,0.3-0.4,0.8-1.2,0.8c-0.9,0-1.3-0.6-1.3-1.5v-2.4h0.5v2.3
		c0,0.7,0.3,1.2,0.9,1.2c0.9,0,1.1-0.8,1.1-1.4v-2.1h0.5V26.3z"/>
	<path class="st0" d="M193.6,23.9c-0.3-0.1-0.6-0.2-0.8-0.2c-0.9,0-1.4,0.7-1.4,1.6s0.5,1.6,1.4,1.6c0.3,0,0.6-0.1,0.9-0.2v0.4
		c-0.3,0.1-0.6,0.1-1,0.1c-1.2,0-1.8-0.9-1.8-2c0-1.2,0.8-2,1.9-2c0.5,0,0.8,0.1,0.9,0.2L193.6,23.9z"/>
	<path class="st0" d="M197.2,26.6L197.2,26.6c-0.2,0.5-0.8,0.7-1.2,0.7c-1.1,0-1.3-0.7-1.3-1.1c0-1.3,1.4-1.3,2.4-1.3h0.1v-0.2
		c0-0.7-0.2-1-0.9-1c-0.4,0-0.8,0.1-1.1,0.3v-0.5c0.3-0.1,0.8-0.3,1.1-0.3c0.9,0,1.3,0.4,1.3,1.4v1.7c0,0.3,0,0.5,0,0.8h-0.5
		L197.2,26.6L197.2,26.6z M197.1,25.2H197c-0.8,0-1.8,0.1-1.8,0.9c0,0.5,0.4,0.7,0.8,0.7c1.1,0,1.1-1,1.1-1.4V25.2z"/>
	<path class="st0" d="M201,23.8h-0.9v2.5c0,0.3,0.1,0.6,0.5,0.6c0.2,0,0.3,0,0.4-0.1v0.4c-0.1,0-0.3,0.1-0.6,0.1
		c-0.8,0-0.9-0.6-0.9-1.3v-2.2h-0.8v-0.4h0.8v-0.9l0.5-0.2v1.1h0.9v0.4H201z"/>
	<path class="st0" d="M202.9,22.3h-0.5v-0.6h0.5V22.3z M202.4,23.3h0.5v3.8h-0.5V23.3z"/>
	<path class="st0" d="M206.2,23.3c1.2,0,1.8,1,1.8,2s-0.5,2-1.8,2c-1.2,0-1.8-1-1.8-2C204.4,24.2,204.9,23.3,206.2,23.3z
		 M206.2,26.9c0.8,0,1.3-0.7,1.3-1.6s-0.4-1.6-1.3-1.6c-0.8,0-1.3,0.7-1.3,1.6C204.9,26.2,205.3,26.9,206.2,26.9z"/>
	<path class="st0" d="M209.4,24.3c0-0.3,0-0.6,0-0.9h0.5V24l0,0c0.2-0.3,0.4-0.8,1.2-0.8c0.9,0,1.3,0.6,1.3,1.5v2.4h-0.5v-2.3
		c0-0.7-0.3-1.2-0.9-1.2c-0.9,0-1.1,0.8-1.1,1.4v2.1h-0.5V24.3z"/>
	<path class="st0" d="M219.1,26.6L219.1,26.6c-0.2,0.5-0.8,0.7-1.2,0.7c-1.1,0-1.3-0.7-1.3-1.1c0-1.3,1.4-1.3,2.4-1.3h0.1v-0.2
		c0-0.7-0.2-1-0.9-1c-0.4,0-0.8,0.1-1.1,0.3v-0.5c0.3-0.1,0.8-0.3,1.1-0.3c0.9,0,1.3,0.4,1.3,1.4v1.7c0,0.3,0,0.5,0,0.8H219
		L219.1,26.6L219.1,26.6z M219,25.2h-0.1c-0.8,0-1.8,0.1-1.8,0.9c0,0.5,0.4,0.7,0.8,0.7c1.1,0,1.1-1,1.1-1.4V25.2z"/>
	<path class="st0" d="M221.2,24.3c0-0.3,0-0.6,0-0.9h0.5V24l0,0c0.2-0.3,0.4-0.8,1.2-0.8c0.9,0,1.3,0.6,1.3,1.5v2.4h-0.5v-2.3
		c0-0.7-0.3-1.2-0.9-1.2c-0.9,0-1.1,0.8-1.1,1.4v2.1h-0.5V24.3z"/>
	<path class="st0" d="M229,27.2h-0.5v-0.6l0,0c-0.3,0.5-0.6,0.7-1.2,0.7c-1.1,0-1.6-0.9-1.6-2c0-1.2,0.5-2,1.6-2
		c0.8,0,1.1,0.5,1.2,0.7l0,0v-2.4h0.5V27.2z M227.4,26.9c0.8,0,1.1-0.9,1.1-1.6s-0.3-1.6-1.1-1.6c-0.9,0-1.1,0.9-1.1,1.6
		C226.2,26,226.5,26.9,227.4,26.9z"/>
	<path class="st0" d="M233.4,21.9h1.4c0.9,0,1.5,0.4,1.5,1.4c0,0.7-0.5,1.1-1.2,1.2l0,0c0.4,0.1,0.5,0.3,0.7,0.6l0.9,2h-0.6
		l-0.8-1.8c-0.3-0.7-0.5-0.7-1-0.7h-0.4v2.5h-0.5L233.4,21.9L233.4,21.9z M234,24.3h0.5c0.6,0,1.3-0.2,1.3-1c0-0.9-0.6-0.9-1.3-0.9
		H234V24.3z"/>
	<path class="st0" d="M240.7,27.1c-0.3,0.1-0.8,0.2-1.1,0.2c-1.3,0-1.7-0.9-1.7-2c0-1.2,0.6-2,1.6-2c1.1,0,1.5,0.9,1.5,1.9v0.2h-2.6
		c0,0.8,0.4,1.5,1.3,1.5c0.3,0,0.8-0.1,1.1-0.3v0.5C240.8,27.1,240.7,27.1,240.7,27.1z M240.5,25c0-0.7-0.3-1.3-1-1.3
		s-1.1,0.7-1.1,1.3H240.5z"/>
	<path class="st0" d="M242.2,26.6c0.3,0.1,0.6,0.2,1,0.2c0.5,0,0.8-0.2,0.8-0.7c0-0.9-1.8-0.8-1.8-1.9c0-0.8,0.6-1,1.2-1
		c0.2,0,0.6,0,0.9,0.2v0.4c-0.2-0.1-0.6-0.2-0.8-0.2c-0.5,0-0.8,0.2-0.8,0.6c0,0.7,1.9,0.6,1.9,1.9c0,0.8-0.8,1.1-1.3,1.1
		c-0.4,0-0.7,0-1.1-0.2L242.2,26.6z"/>
	<path class="st0" d="M248.5,27.1c-0.3,0.1-0.8,0.2-1.1,0.2c-1.3,0-1.7-0.9-1.7-2c0-1.2,0.6-2,1.6-2c1.1,0,1.5,0.9,1.5,1.9v0.2h-2.6
		c0,0.8,0.4,1.5,1.3,1.5c0.3,0,0.8-0.1,1.1-0.3L248.5,27.1L248.5,27.1z M248.3,25c0-0.7-0.3-1.3-1-1.3s-1.1,0.7-1.1,1.3H248.3z"/>
	<path class="st0" d="M252.5,26.6L252.5,26.6c-0.2,0.5-0.8,0.7-1.2,0.7c-1.1,0-1.3-0.7-1.3-1.1c0-1.3,1.4-1.3,2.4-1.3h0.1v-0.2
		c0-0.7-0.2-1-0.9-1c-0.4,0-0.8,0.1-1.1,0.3v-0.5c0.3-0.1,0.8-0.3,1.1-0.3c0.9,0,1.3,0.4,1.3,1.4v1.7c0,0.3,0,0.5,0,0.8h-0.5
		L252.5,26.6L252.5,26.6z M252.5,25.2h-0.1c-0.8,0-1.8,0.1-1.8,0.9c0,0.5,0.4,0.7,0.8,0.7c1.1,0,1.1-1,1.1-1.4V25.2z"/>
	<path class="st0" d="M254.6,24.2c0-0.4,0-0.6,0-0.9h0.5V24l0,0c0.2-0.4,0.5-0.8,1-0.8c0.1,0,0.2,0,0.3,0v0.5c-0.1,0-0.2,0-0.3,0
		c-0.8,0-1,0.8-1,1.5v1.9h-0.5V24.2z"/>
	<path class="st0" d="M260.1,23.9c-0.3-0.1-0.6-0.2-0.8-0.2c-0.9,0-1.4,0.7-1.4,1.6s0.5,1.6,1.4,1.6c0.3,0,0.6-0.1,0.9-0.2v0.4
		c-0.3,0.1-0.6,0.1-1,0.1c-1.2,0-1.8-0.9-1.8-2c0-1.2,0.8-2,1.9-2c0.5,0,0.8,0.1,0.9,0.2L260.1,23.9z"/>
	<path class="st0" d="M261.5,21.5h0.5V24l0,0c0.2-0.4,0.6-0.7,1.2-0.7c1,0,1.3,0.7,1.3,1.6v2.3H264v-2.3c0-0.7-0.1-1.2-0.9-1.2
		s-1.1,0.8-1.1,1.5v2h-0.5V21.5z"/>
	<path class="st0" d="M269,21.9h2.6v0.5h-2v1.9h1.9v0.5h-1.9v2h2.1v0.5H269V21.9z"/>
	<path class="st0" d="M274.9,21.9h0.6l2.1,5.2h-0.5l-0.6-1.4h-2.6l-0.6,1.4h-0.5L274.9,21.9z M275.2,22.4l-1.1,2.9h2.3L275.2,22.4z"
		/>
	<path class="st0" d="M278.9,21.9h2.6v0.5h-2v1.9h1.9v0.5h-1.9v2h2.1v0.5h-2.7V21.9z"/>
	<path class="st0" d="M283.3,21.9h1.4c0.9,0,1.5,0.4,1.5,1.4c0,0.7-0.5,1.1-1.2,1.2l0,0c0.4,0.1,0.5,0.3,0.7,0.6l0.9,2H286l-0.8-1.8
		c-0.3-0.7-0.5-0.7-1-0.7h-0.4v2.5h-0.5L283.3,21.9L283.3,21.9z M283.8,24.3h0.5c0.6,0,1.3-0.2,1.3-1c0-0.9-0.6-0.9-1.3-0.9h-0.5
		V24.3z"/>
	<path class="st0" d="M180.1,33.2c-0.3-0.1-0.7-0.2-1.1-0.2c-0.4,0-0.8,0.2-0.8,0.7c0,0.9,2.3,0.5,2.3,2.3c0,1.1-0.9,1.6-2,1.6
		c-0.6,0-0.8-0.1-1.3-0.2l0.1-0.9c0.4,0.2,0.8,0.3,1.2,0.3s0.9-0.2,0.9-0.7c0-1-2.3-0.6-2.3-2.3c0-1.2,0.9-1.6,1.8-1.6
		c0.5,0,0.9,0.1,1.3,0.2L180.1,33.2z"/>
	<path class="st0" d="M181.8,34.4h-0.7v-0.7h0.7v-0.8l1-0.3v1.1h0.9v0.7h-0.9v1.8c0,0.3,0.1,0.6,0.5,0.6c0.2,0,0.4,0,0.5-0.1v0.8
		c-0.2,0.1-0.4,0.1-0.7,0.1c-0.8,0-1.2-0.5-1.2-1.3v-1.9C181.9,34.4,181.8,34.4,181.8,34.4z"/>
	<path class="st0" d="M184.6,33.9c0.4-0.2,0.9-0.3,1.3-0.3c1.2,0,1.7,0.5,1.7,1.6v0.5c0,0.4,0,0.7,0,1s0,0.6,0,0.9h-0.9
		c0-0.2,0-0.5,0-0.6l0,0c-0.2,0.4-0.7,0.7-1.2,0.7c-0.7,0-1.4-0.4-1.4-1.1c0-0.6,0.3-0.9,0.7-1.1s0.9-0.2,1.3-0.2h0.6
		c0-0.6-0.3-0.8-0.9-0.8c-0.4,0-0.9,0.2-1.2,0.4L184.6,33.9z M185.8,36.9c0.3,0,0.5-0.1,0.7-0.3s0.2-0.5,0.2-0.8h-0.4
		c-0.5,0-1.1,0.1-1.1,0.7C185.2,36.7,185.5,36.9,185.8,36.9z"/>
	<path class="st0" d="M189.1,34.4h-0.7v-0.7h0.7v-0.8l1-0.3v1.1h0.9v0.7h-0.9v1.8c0,0.3,0.1,0.6,0.5,0.6c0.2,0,0.4,0,0.5-0.1v0.8
		c-0.2,0.1-0.4,0.1-0.7,0.1c-0.8,0-1.2-0.5-1.2-1.3v-1.9C189.2,34.4,189.1,34.4,189.1,34.4z"/>
	<path class="st0" d="M194.9,37.3c-0.4,0.2-0.8,0.3-1.3,0.3c-1.3,0-2-0.7-2-2c0-1.1,0.6-2,1.8-2c1.4,0,1.8,1,1.8,2.3h-2.7
		c0,0.6,0.5,1,1.1,1c0.5,0,0.9-0.2,1.3-0.4L194.9,37.3L194.9,37.3z M194.2,35.2c0-0.5-0.3-0.9-0.8-0.9c-0.6,0-0.8,0.4-0.9,0.9H194.2
		z"/>
	<path class="st0" d="M201.2,33.2c-0.3-0.1-0.7-0.2-1.1-0.2c-0.4,0-0.8,0.2-0.8,0.7c0,0.9,2.3,0.5,2.3,2.3c0,1.1-0.9,1.6-2,1.6
		c-0.6,0-0.8-0.1-1.3-0.2l0.1-0.9c0.4,0.2,0.8,0.3,1.2,0.3s0.9-0.2,0.9-0.7c0-1-2.3-0.6-2.3-2.3c0-1.2,0.9-1.6,1.8-1.6
		c0.5,0,0.9,0.1,1.3,0.2L201.2,33.2z"/>
	<path class="st0" d="M205.7,37.3c-0.4,0.2-0.8,0.3-1.3,0.3c-1.3,0-2-0.7-2-2c0-1.1,0.6-2,1.8-2c1.4,0,1.8,1,1.8,2.3h-2.7
		c0,0.6,0.5,1,1.1,1c0.5,0,0.9-0.2,1.3-0.4L205.7,37.3L205.7,37.3z M205,35.2c0-0.5-0.3-0.9-0.8-0.9c-0.6,0-0.8,0.4-0.9,0.9H205z"/>
	<path class="st0" d="M209.3,34.5c-0.2-0.1-0.4-0.1-0.7-0.1c-0.6,0-1,0.5-1,1.2s0.3,1.3,1,1.3c0.3,0,0.6-0.1,0.8-0.2v0.8
		c-0.3,0.1-0.6,0.1-1,0.1c-1.3,0-1.9-0.9-1.9-2s0.7-2,1.9-2c0.4,0,0.7,0,1,0.1L209.3,34.5z"/>
	<path class="st0" d="M210.3,33.7h0.9v0.9l0,0c0-0.4,0.5-1,1.1-1c0.1,0,0.2,0,0.3,0v1c-0.1-0.1-0.3-0.1-0.5-0.1
		c-0.8,0-0.8,1-0.8,1.6v1.4h-1V33.7z"/>
	<path class="st0" d="M216.3,37.3c-0.4,0.2-0.8,0.3-1.3,0.3c-1.3,0-2-0.7-2-2c0-1.1,0.6-2,1.8-2c1.4,0,1.8,1,1.8,2.3h-2.7
		c0,0.6,0.5,1,1.1,1c0.5,0,0.9-0.2,1.3-0.4L216.3,37.3L216.3,37.3z M215.6,35.2c0-0.5-0.3-0.9-0.8-0.9c-0.6,0-0.8,0.4-0.9,0.9H215.6
		z"/>
	<path class="st0" d="M217.8,34.4h-0.7v-0.7h0.7v-0.8l1-0.3v1.1h0.9v0.7h-0.9v1.8c0,0.3,0.1,0.6,0.5,0.6c0.2,0,0.4,0,0.5-0.1v0.8
		c-0.2,0.1-0.4,0.1-0.7,0.1c-0.8,0-1.2-0.5-1.2-1.3v-1.9C217.9,34.4,217.8,34.4,217.8,34.4z"/>
	<path class="st0" d="M220.7,33.9c0.4-0.2,0.9-0.3,1.3-0.3c1.2,0,1.7,0.5,1.7,1.6v0.5c0,0.4,0,0.7,0,1s0,0.6,0,0.9h-0.9
		c0-0.2,0-0.5,0-0.6l0,0c-0.2,0.4-0.7,0.7-1.2,0.7c-0.7,0-1.4-0.4-1.4-1.1c0-0.6,0.3-0.9,0.7-1.1s0.9-0.2,1.3-0.2h0.6
		c0-0.6-0.3-0.8-0.9-0.8c-0.4,0-0.9,0.2-1.2,0.4L220.7,33.9z M221.8,36.9c0.3,0,0.5-0.1,0.7-0.3s0.2-0.5,0.2-0.8h-0.4
		c-0.5,0-1.1,0.1-1.1,0.7C221.2,36.7,221.5,36.9,221.8,36.9z"/>
	<path class="st0" d="M224.8,33.7h0.9v0.9l0,0c0-0.4,0.5-1,1.1-1c0.1,0,0.2,0,0.3,0v1c-0.1-0.1-0.3-0.1-0.5-0.1
		c-0.8,0-0.8,1-0.8,1.6v1.4h-1V33.7z"/>
	<path class="st0" d="M227.8,32h1v1h-1V32z M227.8,33.7h1v3.9h-1V33.7z"/>
	<path class="st0" d="M230.2,33.9c0.4-0.2,0.9-0.3,1.3-0.3c1.2,0,1.7,0.5,1.7,1.6v0.5c0,0.4,0,0.7,0,1s0,0.6,0,0.9h-0.9
		c0-0.2,0-0.5,0-0.6l0,0c-0.2,0.4-0.7,0.7-1.2,0.7c-0.7,0-1.4-0.4-1.4-1.1c0-0.6,0.3-0.9,0.7-1.1c0.4-0.2,0.9-0.2,1.3-0.2h0.6
		c0-0.6-0.3-0.8-0.9-0.8c-0.4,0-0.9,0.2-1.2,0.4L230.2,33.9z M231.4,36.9c0.3,0,0.5-0.1,0.7-0.3s0.2-0.5,0.2-0.8h-0.4
		c-0.5,0-1.1,0.1-1.1,0.7C230.7,36.7,231,36.9,231.4,36.9z"/>
	<path class="st0" d="M234.6,34.4h-0.7v-0.7h0.7v-0.8l1-0.3v1.1h0.9v0.7h-0.9v1.8c0,0.3,0.1,0.6,0.5,0.6c0.2,0,0.4,0,0.5-0.1v0.8
		c-0.2,0.1-0.4,0.1-0.7,0.1c-0.8,0-1.2-0.5-1.2-1.3v-1.9C234.7,34.4,234.6,34.4,234.6,34.4z"/>
	<path class="st0" d="M239.9,34.4h-0.7v-0.7h0.7v-0.5c0-0.8,0.4-1.3,1.2-1.3c0.3,0,0.5,0,0.7,0.1l-0.1,0.8c-0.1-0.1-0.2-0.1-0.4-0.1
		c-0.3,0-0.4,0.3-0.4,0.6v0.5h0.9v0.7h-0.9v3.1h-1V34.4z"/>
	<path class="st0" d="M244.3,33.6c1.1,0,2,0.8,2,2c0,1.1-0.7,2-2,2s-2-0.9-2-2C242.3,34.3,243.2,33.6,244.3,33.6z M244.3,36.8
		c0.8,0,1-0.7,1-1.3s-0.3-1.1-1-1.1s-1,0.6-1,1.1C243.4,36.1,243.6,36.8,244.3,36.8z"/>
	<path class="st0" d="M247.3,33.7h0.9v0.9l0,0c0-0.4,0.5-1,1.1-1c0.1,0,0.2,0,0.3,0v1c-0.1-0.1-0.3-0.1-0.5-0.1
		c-0.8,0-0.8,1-0.8,1.6v1.4h-1V33.7z"/>
	<path class="st0" d="M252.6,32.3h3.1v0.8h-2v1.3h1.9v0.8h-2v1.5h2.1v0.8h-3.1V32.3z"/>
	<path class="st0" d="M259.3,34.5c-0.2-0.1-0.4-0.1-0.7-0.1c-0.6,0-1,0.5-1,1.2s0.3,1.3,1,1.3c0.3,0,0.6-0.1,0.8-0.2v0.8
		c-0.3,0.1-0.6,0.1-1,0.1c-1.3,0-1.9-0.9-1.9-2s0.7-2,1.9-2c0.4,0,0.7,0,1,0.1L259.3,34.5z"/>
	<path class="st0" d="M262,33.6c1.1,0,2,0.8,2,2c0,1.1-0.7,2-2,2s-2-0.9-2-2C260,34.3,260.8,33.6,262,33.6z M262,36.8
		c0.8,0,1-0.7,1-1.3s-0.3-1.1-1-1.1s-1,0.6-1,1.1C261,36.1,261.2,36.8,262,36.8z"/>
	<path class="st0" d="M264.9,33.7h1v0.5l0,0c0.3-0.4,0.7-0.6,1.3-0.6c0.9,0,1.3,0.6,1.3,1.5v2.4h-1v-2.1c0-0.5,0-1.1-0.7-1.1
		s-0.9,0.8-0.9,1.3v1.9h-1L264.9,33.7L264.9,33.7z"/>
	<path class="st0" d="M271.4,33.6c1.1,0,2,0.8,2,2c0,1.1-0.7,2-2,2s-2-0.9-2-2C269.4,34.3,270.2,33.6,271.4,33.6z M271.4,36.8
		c0.8,0,1-0.7,1-1.3s-0.3-1.1-1-1.1s-1,0.6-1,1.1C270.4,36.1,270.6,36.8,271.4,36.8z"/>
	<path class="st0" d="M274.3,33.7h0.9v0.5l0,0c0.3-0.5,0.8-0.6,1.1-0.6c0.5,0,0.9,0.2,1.1,0.7c0.2-0.5,0.7-0.7,1.2-0.7
		c1,0,1.2,0.7,1.2,1.5v2.4h-1v-2.3c0-0.4,0-0.9-0.6-0.9c-0.7,0-0.8,0.8-0.8,1.3v1.9h-1v-2.3c0-0.4,0-0.9-0.6-0.9
		c-0.7,0-0.8,0.8-0.8,1.3v1.9h-1v-3.8C274,33.7,274.3,33.7,274.3,33.7z"/>
	<path class="st0" d="M281.1,32h1v1h-1V32z M281.1,33.7h1v3.9h-1V33.7z"/>
	<path class="st0" d="M285.8,34.5c-0.2-0.1-0.4-0.1-0.7-0.1c-0.6,0-1,0.5-1,1.2s0.3,1.3,1,1.3c0.3,0,0.6-0.1,0.8-0.2v0.8
		c-0.3,0.1-0.6,0.1-1,0.1c-1.3,0-1.9-0.9-1.9-2s0.7-2,1.9-2c0.4,0,0.7,0,1,0.1L285.8,34.5z"/>
	<path class="st0" d="M290.5,32.3h1.2l2.1,5.2h-1.2l-0.5-1.2H290l-0.5,1.2h-1.1L290.5,32.3z M291.1,33.3L291.1,33.3l-0.8,2.2h1.5
		L291.1,33.3z"/>
	<path class="st0" d="M294.8,34.4h-0.7v-0.7h0.7v-0.5c0-0.8,0.4-1.3,1.2-1.3c0.3,0,0.5,0,0.7,0.1l-0.1,0.8c-0.1-0.1-0.2-0.1-0.4-0.1
		c-0.3,0-0.4,0.3-0.4,0.6v0.5h0.9v0.7h-0.9v3.1h-1L294.8,34.4L294.8,34.4z"/>
	<path class="st0" d="M297.7,34.4H297v-0.7h0.7v-0.5c0-0.8,0.4-1.3,1.2-1.3c0.3,0,0.5,0,0.7,0.1l-0.1,0.8c-0.1-0.1-0.2-0.1-0.4-0.1
		c-0.3,0-0.4,0.3-0.4,0.6v0.5h0.9v0.7h-0.9v3.1h-1L297.7,34.4L297.7,34.4z"/>
	<path class="st0" d="M300.6,33.9c0.4-0.2,0.9-0.3,1.3-0.3c1.2,0,1.7,0.5,1.7,1.6v0.5c0,0.4,0,0.7,0,1s0,0.6,0,0.9h-0.9
		c0-0.2,0-0.5,0-0.6l0,0c-0.2,0.4-0.7,0.7-1.2,0.7c-0.7,0-1.4-0.4-1.4-1.1c0-0.6,0.3-0.9,0.7-1.1c0.4-0.2,0.9-0.2,1.3-0.2h0.6
		c0-0.6-0.3-0.8-0.9-0.8c-0.4,0-0.9,0.2-1.2,0.4V33.9z M301.7,36.9c0.3,0,0.5-0.1,0.7-0.3s0.2-0.5,0.2-0.8h-0.4
		c-0.5,0-1.1,0.1-1.1,0.7C301.1,36.7,301.4,36.9,301.7,36.9z"/>
	<path class="st0" d="M304.7,32h1v1h-1V32z M304.7,33.7h1v3.9h-1V33.7z"/>
	<path class="st0" d="M306.9,33.7h0.9v0.9l0,0c0-0.4,0.5-1,1.1-1c0.1,0,0.2,0,0.3,0v1c-0.1-0.1-0.3-0.1-0.5-0.1
		c-0.8,0-0.8,1-0.8,1.6v1.4h-1V33.7z"/>
	<path class="st0" d="M312.2,34.5c-0.3-0.1-0.5-0.2-0.9-0.2c-0.3,0-0.6,0.1-0.6,0.4c0,0.6,1.7,0.2,1.7,1.6c0,0.9-0.8,1.3-1.6,1.3
		c-0.4,0-0.8-0.1-1.1-0.2l0.1-0.8c0.3,0.2,0.6,0.3,1,0.3c0.3,0,0.7-0.1,0.7-0.5c0-0.8-1.7-0.2-1.7-1.6c0-0.8,0.7-1.2,1.5-1.2
		c0.5,0,0.8,0.1,1.1,0.1L312.2,34.5z"/>
	<path class="st0" d="M318.4,33.2c-0.3-0.1-0.7-0.2-1.1-0.2s-0.8,0.2-0.8,0.7c0,0.9,2.3,0.5,2.3,2.3c0,1.1-0.9,1.6-2,1.6
		c-0.6,0-0.8-0.1-1.3-0.2l0.1-0.9c0.4,0.2,0.8,0.3,1.2,0.3c0.4,0,0.9-0.2,0.9-0.7c0-1-2.3-0.6-2.3-2.3c0-1.2,0.9-1.6,1.8-1.6
		c0.5,0,0.9,0.1,1.3,0.2L318.4,33.2z"/>
	<path class="st0" d="M319.9,32.3h3.1v0.8h-2v1.3h1.9v0.8H321v1.5h2.1v0.8H320v-5.2C320,32.3,319.9,32.3,319.9,32.3z"/>
	<path class="st0" d="M328,37.5c-0.4,0.1-0.8,0.2-1.2,0.2c-1.7,0-2.9-0.8-2.9-2.6s1.1-2.8,2.9-2.8c0.3,0,0.8,0.1,1.2,0.2l-0.1,0.9
		c-0.4-0.2-0.8-0.3-1.1-0.3c-1.1,0-1.8,0.8-1.8,1.9c0,1.1,0.7,1.9,1.8,1.9c0.4,0,0.9-0.1,1.1-0.2L328,37.5z"/>
	<path class="st0" d="M331.2,32.2c1.6,0,2.6,1.1,2.6,2.7s-0.9,2.7-2.6,2.7s-2.6-1.1-2.6-2.7S329.5,32.2,331.2,32.2z M331.2,36.8
		c1.1,0,1.5-1,1.5-1.9s-0.4-1.9-1.5-1.9c-1,0-1.5,0.9-1.5,1.9C329.7,35.8,330.1,36.8,331.2,36.8z"/>
</g>
</svg>
