<?xml version="1.0" encoding="utf-8"?>
<!-- Generator: Adobe Illustrator 25.2.3, SVG Export Plug-In . SVG Version: 6.00 Build 0)  -->
<svg version="1.1" id="Ebene_1" xmlns="http://www.w3.org/2000/svg" xmlns:xlink="http://www.w3.org/1999/xlink" x="0px" y="0px"
	 viewBox="0 0 264.6 57.9" style="enable-background:new 0 0 264.6 57.9;" xml:space="preserve">
<style type="text/css">
	.st0{fill:#67A07E;}
	.st1{fill:#C6EAFB;}
</style>
<g>
	<path class="st0" d="M20.1,15.9c0.3,0,0.4,0,0.7,0c0.1,0.1,0.3,0.2,0.5,0.2c0,0,0,0,0.1,0c0.1,0.1,0.2,0.1,0.3,0.1
		c0.1,0.1,0.1,0.2,0.3,0.3c0.1,0.1,0.1,0.1,0.2,0.2c0.1,0,0.1,0.1,0.1,0.1s0.1,0.3-0.1,0.5C22,17.6,22,17.7,21.8,18
		c-0.2,0.2-0.2,0.4-0.3,0.6v0.1c-0.2,0.1-0.1,0.2-0.2,0.3c0,0.2-0.1,0.4-0.1,0.6c-0.1,0.1-0.1,0.2-0.2,0.3c-0.1,0.3-0.1,0.7,0.1,0.9
		c0.1,0.2,0.1,0.4,0.2,0.6s0.2,0.3,0.3,0.4c0,0.2,0.3,0.4,0.3,0.4l0.3,0.1l0,0c0.1,0.1,0.2,0.1,0.3,0.2c0.2,0.1,0.5,0.2,0.6,0.4
		c0.1,0.1,0.1,0.3,0.1,0.4c0.2,0.1,0.1,0.3,0.3,0.4c0.1,0.2-0.6,0.7-0.8,0.8c-0.3,0.1-0.5,0.3-0.7,0.5l-0.1,0.2
		c-0.3,0.1-0.5,0.4-0.8,0.5c-0.1,0.2-0.3,0.1-0.5,0.2c-0.1,0-0.2-0.1-0.3-0.1c-0.2,0.1-0.2,0.3-0.4,0.5c0,0.1-0.1,0.1-0.2,0.2
		c-0.1,0-0.1,0-0.2,0.1c-0.2,0-0.3,0-0.4,0.1c-0.1,0.2-0.4,0.3-0.6,0.4c-0.1,0.1-0.2,0-0.2,0.1c-0.1,0-0.3,0.1-0.4,0.1
		c-0.1,0.1-0.3,0.1-0.4,0.1c-0.1,0.1-0.2,0.3-0.4,0.2c0,0.1-0.2,0.1-0.3,0.2c-0.2,0.1-0.3,0.1-0.5,0.2c-0.1,0-0.2,0.1-0.4,0.1
		c-0.1,0.1-0.3,0.2-0.4,0.2c-0.1,0.1-0.1,0.2-0.3,0.3c-0.2,0-0.4,0.2-0.6,0.3c-0.2,0.1-0.3,0.2-0.4,0.3c-0.1,0-0.2,0.1-0.2,0.2
		c-0.3,0.4-0.7,0.6-1.1,1c-0.1,0.1-0.2,0.2-0.3,0.3c-0.1,0-0.1,0.1-0.1,0.1c-0.2,0.1-0.3,0.2-0.4,0.3c0,0.1-0.2,0.1-0.2,0.2
		c-0.2,0.1-0.3,0.2-0.3,0.4l0,0c0,0.1-0.1,0.1-0.1,0.1c-0.1,0-0.2,0.1-0.2,0.2c-0.2,0.2-0.3,0.2-0.3,0.4c-0.1,0.1-0.2,0.3-0.4,0.3
		c-0.1,0.1-0.3,0.2-0.3,0.3c-0.3,0.1-0.5,0.3-0.8,0.5c-0.1,0.2-0.3,0.2-0.4,0.3c-0.1,0-0.2,0-0.3,0.1c-0.1,0-0.2,0-0.3,0.2
		c-0.2,0.1-0.5,0.3-0.7,0.2C7.5,34.4,7.2,34.2,7,34c0-0.2-0.1-0.2-0.2-0.4c-0.1-0.3-0.1-0.6,0-0.9c-0.1-0.2,0.1-0.3,0-0.5
		c0-0.2,0-0.3,0-0.5c-0.1-0.1,0-0.2-0.1-0.3s0-0.3,0-0.4c-0.1-0.2,0.1-0.4-0.1-0.6c-0.2-0.1-0.2-0.2-0.3-0.3c0-0.1-0.1-0.1-0.1-0.2
		C6.1,29.7,6,29.6,6,29.4c-0.1-0.2,0-0.5-0.2-0.7c0-0.1-0.1-0.2,0-0.2c-0.1-0.4-0.2-0.8-0.3-1.2c-0.1-0.2-0.1-0.3-0.2-0.5
		c-0.2-0.2-0.2-0.5-0.2-0.7c-0.2-0.2-0.3-0.5-0.4-0.7c-0.1-0.1,0-0.3-0.1-0.4c0-0.3-0.1-0.5-0.2-0.7c0-0.1-0.1-0.1-0.1-0.2
		c-0.2-0.3-0.2-0.5-0.3-0.8c-0.2-0.3-0.3-0.6-0.4-0.9c-0.3-0.3-0.1-0.7-0.2-1.1c-0.1-0.3,0-0.6,0-0.9s0-0.7-0.1-1.1
		c-0.1-0.1,0-0.4-0.2-0.4c0-0.2-0.2-0.3-0.2-0.5c-0.1-0.1,0-0.2-0.1-0.3c-0.1-0.2,0-0.4,0.1-0.6C3,17.4,2.8,17.3,3,17.2
		C3,17.1,3.1,17,3.2,17c0.2-0.3,0.3-0.7,0.5-1c0-0.1,0.1-0.2,0.1-0.3c0.4-0.5,1,0,1.4-0.3c0.1,0,0.2,0,0.2-0.1
		c0.7-0.1,1.4,0.5,2,0.7c0.3-0.1,0.6,0.2,1.1,0.1c0.1,0,0.3,0,0.4-0.1c0.4,0,0.7,0,1.1,0c0.2,0,0.4-0.1,0.6,0l0,0
		c0.6,0,1.1,0.2,1.7,0.1c0.1,0,0.2,0,0.3,0c0.6,0,1.1-0.3,1.6-0.3c0.1,0,0.2,0,0.3,0c0.3,0.1,0.6,0.3,0.9,0.3c0.2,0,0.5-0.2,0.7-0.1
		c0.2,0,0.4,0,0.5,0c0.2,0,0.4,0.1,0.6,0.1l0,0c0.3,0,0.6-0.1,0.9-0.1c0.4,0,0.7-0.1,1.1-0.2C19.6,15.8,19.8,15.8,20.1,15.9z"/>
	<g>
		<path class="st0" d="M48,25.2c-0.2,0.1-0.4,0-0.7,0l-0.6,0.1h-0.1c-0.3,0.2-0.7,0.1-1.1,0.3c-0.1,0.1-0.3,0-0.4,0.1
			c-0.2,0.1-0.5,0.1-0.7,0.2c-0.5-0.1-0.9,0.1-1.3,0.1l-0.4,0.2c-0.2,0-0.5,0.1-0.7,0.1c-0.2-0.1-0.5,0-0.7,0.1
			c-0.5,0.1-0.8-0.4-1.3-0.3C39.9,26,39.8,26,39.7,26c0,0-0.1,0.1-0.1,0c-0.1,0-0.2,0-0.4,0c-0.1-0.1-0.2-0.2-0.3-0.2
			s-0.1-0.2-0.2-0.1c-0.1-0.1-0.3-0.1-0.5-0.1h-0.7l0,0h-0.1c-0.2,0-0.4,0.1-0.6,0c-0.3,0.1-0.6,0.2-1,0.3c-0.2,0.1-0.4,0.3-0.7,0.4
			c-0.2-0.1-0.5,0-0.7,0.1s-0.5,0.1-0.7,0.1c-0.1,0-0.2,0.1-0.4,0.1c-0.3,0.2-0.8,0-1.1,0.4c-0.2,0.1-0.3,0.2-0.5,0.3
			c-0.1,0.1-0.3,0-0.4,0.1c-0.2,0-0.3,0.1-0.4,0c-0.2,0-0.2,0.1-0.3,0c-0.1,0-0.1,0-0.3,0c-0.2-0.1-0.5,0-0.6,0.1
			c-0.1,0-0.1,0.1-0.2,0.2c-0.3,0.1-0.4,0.5-0.6,0.7c-0.2,0.1-0.1,0.4-0.2,0.5v0.5c-0.2,0.4,0.3,0.6,0.2,1c0.1,0.1,0,0.2,0.1,0.3
			l0.1,0.3c0.1,0.2,0,0.4,0.1,0.5c0.1,0.2,0.3,0.3,0.3,0.5l0.5,0.2l0.2,0.2c0.2,0,0.5,0.1,0.8,0.1l0.1,0.1c0.2,0.1,0.4,0.1,0.6,0.2
			c0.1,0,0.2,0.1,0.3,0.1c0.4,0.1,0.8,0.2,1.2,0.3v0.1c0.2,0.1,0.3,0.2,0.5,0.2c0.1,0.1,0.3,0.1,0.5,0.2c0.2,0,0.2,0.1,0.4,0.2
			c0.3,0,0.4,0.3,0.6,0.3c0.2,0.1,0.3,0.2,0.5,0.2c0.1,0.1,0.2,0.1,0.4,0.2c0.2,0.1,0.3,0.3,0.5,0.3c0.1,0.1,0.2,0.2,0.3,0.2
			c0.1,0.1,0.2,0.2,0.3,0.3l0,0l0.1,0.1c0.1,0.1,0.3,0.1,0.4,0.2c0.3,0.1,0.7,0.2,1,0.3l0,0c0.1,0,0.3,0,0.4,0.1
			c0.8,0.3,1.7,0.7,2.6,0.8c0.5,0.1,1.1,0.2,1.6,0.3c0.4,0.2,0.8,0.3,1.3,0.5c0.2,0,0.4,0.1,0.6,0.2c0.1,0.1,0.3,0.1,0.4,0.1
			c0,0,0.1,0,0,0.1c0.3,0.1,0.6,0.2,0.9,0.4c0.1,0,0.1,0.1,0.2,0c0.1,0.1,0.2,0.2,0.3,0.1c0,0,0,0,0.1,0c0.1,0.1,0.3,0.1,0.4,0.2
			l0.6,0.2c0.2,0.1,0.4,0.1,0.6,0.1V25C48.5,25,48.2,25,48,25.2z"/>
	</g>
</g>
<g>
	<path class="st0" d="M16.3,47.8c0.1-0.2,0.1-0.3,0.1-0.5c0-0.1,0.1-0.2,0.2-0.4c0.1-0.1,0.1-0.3,0.2-0.4c0,0,0-0.1,0.1-0.1
		c0-0.2,0.2-0.4,0.3-0.6v-0.1c0.1-0.3,0.2-0.5,0.3-0.7l0,0c0.1-0.1,0.1-0.3,0.2-0.4c0.1-0.2,0.2-0.3,0.2-0.5C18,44,18,44,18,43.9
		c-0.1-0.3,0.2-0.5,0.2-0.8V43c0.1-0.2,0.2-0.3,0.2-0.5c0.1-0.1,0.1-0.2,0.1-0.2c0.1-0.2,0.3-0.4,0.3-0.6c0.1,0,0-0.1,0.1-0.1
		c0.1-0.1,0.2-0.2,0.2-0.3c0.2-0.2,0.3-0.6,0.5-0.9c0.1-0.3,0.3-0.5,0.5-0.7c0.1-0.1,0.1-0.2,0.2-0.3c0.1-0.2,0.2-0.3,0.3-0.4
		c0.1-0.4,0.5-0.7,0.7-1.1c0.1,0,0.1-0.1,0.1-0.2c0.1-0.3,0.4-0.5,0.5-0.8c0.1-0.1,0.2-0.2,0.3-0.3c0,0,0.1,0,0.1-0.1
		c0.1-0.1,0.1-0.1,0.2-0.2c0.1,0,0.1-0.1,0.2-0.1h0.1l0,0l0,0c0,0,0.3-0.1,0.4-0.3c0.2-0.2,0.3-0.4,0.4-0.6c0.1-0.2,0.2-0.3,0.3-0.5
		c0.1-0.2,0.2-0.4,0.2-0.5s0-0.1-0.1-0.2c0.2-0.3,0.1-0.8,0-1.2c0-0.3-0.2-0.6-0.5-0.7c-0.2-0.1-0.2-0.3-0.4-0.4c0,0,0,0,0-0.1H23
		l0,0c0,0,0,0-0.1,0l0,0l0,0c-0.1-0.1-0.1-0.2-0.1-0.2c-0.1-0.2-0.3-0.4-0.4-0.6c-0.1-0.3-0.3-0.6-0.6-0.7c-0.1-0.1-0.2-0.1-0.4-0.1
		c-0.2,0-0.4-0.2-0.6-0.2l0,0l0,0c-0.3-0.1-0.4,0-0.6-0.1c-0.1,0.1-0.3,0-0.4,0c-0.1,0.1-0.2,0-0.2,0.1l0,0c-0.1,0.1-0.3,0-0.4,0.1
		s-0.3,0-0.4,0.1c-0.5,0.1-1,0.3-1.4,0.5c-0.2,0-0.3,0.1-0.5,0.2c0,0,0,0.1-0.1,0.1c-0.5,0.3-1,0.4-1.5,0.8c-0.2,0-0.3,0.1-0.4,0.1
		c-0.2,0.1-0.4,0.3-0.6,0.4c-0.1,0-0.1,0.2-0.2,0.2c-0.1,0.2-0.2,0.3-0.4,0.4c-0.1,0.2-0.3,0.1-0.4,0.2c-0.3,0.1-0.5,0.4-0.9,0.4
		c-0.7,0.5-1.5,0.9-2.2,1.4c-0.1,0,0,0.1-0.1,0.1c-0.1,0.3-0.3,0.6-0.6,0.9c-0.3,0.2-0.6,0.4-0.8,0.6c-0.1,0.1-0.3,0.2-0.5,0.2
		c-0.1,0-0.2,0.1-0.3,0.2c-0.2,0.1-0.2,0.2-0.4,0.3c-0.2,0.2-0.4,0.5-0.5,0.6c0,0.1,0.1,0.2,0,0.3c0,0.3,0.1,0.4,0.1,0.7
		C7,38.7,7,38.8,7,38.9c0.1,0.1,0,0.3,0.1,0.3c0,0.3,0.2,0.5,0.2,0.8c0.1,0.2,0.1,0.5,0.3,0.6c0.4,0.6,0.5,1.3,1,1.8
		c0.1,0.2,0.1,0.3,0.1,0.5l0.1,0.5c0.2,0.5,0.5,0.9,0.7,1.3c0.1,0.2,0.1,0.3,0.2,0.5c0.1,0.4,0.1,0.9,0.3,1.3c-0.1,0.1,0,0.2,0,0.3
		c0,0.2,0.1,0.4,0.1,0.5s0.1,0.1,0.1,0.2c-0.2,0.8,0.1,1.4,0.6,2c0.2,0.3,0,0.7,0.1,1c-0.1,0.3,0.1,0.6,0.2,0.9
		c0.2,0.2,0.5,0.1,0.7,0.2c0,0,0.1,0,0.1,0.1l0,0l0,0l0,0l0,0c0.1,0.1,0.4,0.1,0.5,0c0.2,0,0.3,0,0.5,0c0.2,0.3,0.6,0.1,0.9,0.1
		l0.4-0.2c0-0.1,0.2-0.2,0.3-0.3c0-0.2,0.2-0.1,0.2-0.3c0.1-0.1,0.1,0,0.1-0.1c0.1-0.1,0.1-0.1,0.2-0.2c0-0.1,0-0.1,0.1-0.2
		s0.2-0.1,0.2-0.2c0.1-0.1,0.1-0.3,0.2-0.4c0-0.2,0.1-0.2,0.2-0.4c0,0,0-0.1,0.1-0.2c0-0.1,0.2-0.2,0.1-0.4l0,0l0.1-0.3
		C16.1,48.3,16.2,48.1,16.3,47.8C16.4,48,16.3,47.9,16.3,47.8z"/>
	<path class="st0" d="M17.1,51.6l0.2,0.1c0.4,0.1,0.9-0.2,1.3-0.3c0.1,0.1,0.4,0.1,0.5,0.1c0.3,0.1,0.5-0.1,0.8,0
		c0.2,0,0.5-0.1,0.7,0.1c0.2,0,0.5,0.2,0.7,0.2c1,0,1.8-0.6,2.8-0.2c0.9,0,1.6,0.6,2.5,0.6c0,0.1,0.1,0,0.1,0.1c0.5,0,1,0,1.4,0.3
		c0.9,0.1,1.7,0.6,2.6,0.7c0.3,0.1,0.6,0,1,0c0.6-0.1,1.1,0.2,1.7,0.2l0.1,0.1c0.7,0.1,1.4,0,2.2-0.1c0.4,0,0.7,0.3,1.1,0.2
		c0.4-0.2,1,0.2,1.5,0.1l0.6,0.3c0.2,0.1,0.4,0.1,0.6,0c0.4,0,0.8,0.4,1.2,0.4c0.3,0.1,1,0.3,1.2,0.3s0.4,0.1,0.6,0
		c0.2-0.2,0.5,0.1,0.7,0c0.3,0.1,0.6,0.2,0.9,0.3h1c0.8-0.2,1.3,0.6,2.1,0.2c0.6-0.1,1.2-0.3,1.6-0.2v-6.7l-0.1-0.1h-0.1
		c-0.2-0.1-0.3-0.1-0.6-0.1c-0.1-0.1-0.2-0.1-0.3-0.1c-0.2-0.1-0.5-0.2-0.7-0.3c0,0,0,0-0.1,0s-0.1-0.2-0.2-0.2l0,0
		c-0.1-0.1-0.3-0.2-0.4-0.3l0,0l0,0c-0.1,0-0.1,0-0.2-0.1c-0.1-0.1-0.2-0.1-0.3-0.2l0,0l0,0c0,0,0,0-0.1,0c0,0,0,0-0.1,0l0,0l0,0
		c0,0,0,0-0.1,0s-0.1-0.1-0.2-0.1h-0.1c-0.1-0.1-0.2-0.1-0.3-0.2c-0.2-0.1-0.4-0.2-0.6-0.2c0-0.1-0.1-0.1-0.1-0.1h-0.1
		c0-0.1-0.1-0.1-0.1-0.1s-0.1,0-0.2-0.1c0-0.1-0.1-0.1-0.1-0.2c0,0,0,0-0.1,0l0,0c-0.1,0-0.2-0.1-0.3-0.1c-0.6-0.5-1.2-0.9-1.8-1.5
		c-0.2-0.2-0.5-0.6-0.7-0.8s-0.5-0.3-0.6-0.6c-0.2-0.1-0.3-0.2-0.4-0.3c0,0,0,0-0.1,0l0,0l0,0c-0.1,0-0.1-0.1-0.2-0.1c0,0,0,0-0.1,0
		c0-0.1-0.1-0.1-0.1-0.1s0,0-0.1,0c0,0,0,0-0.1,0l0,0c-0.1-0.1-0.1-0.2-0.2-0.2c0,0,0,0-0.1,0c-0.1-0.1-0.2-0.2-0.4-0.3h-0.1
		c-0.1-0.1-0.3-0.2-0.5-0.3l0,0c0,0,0,0-0.1,0s-0.2,0-0.2,0c-0.1,0-0.1-0.1-0.2-0.1l0,0l0,0c-0.5-0.2-0.9-0.3-1.4-0.5h-0.1l0,0l0,0
		V41c0,0,0,0-0.1,0l0,0l0,0c-0.1-0.1-0.3-0.2-0.4-0.3l0,0l0,0l0,0c-0.1-0.1-0.1-0.1-0.2-0.2c-0.1-0.1-0.1-0.2-0.3-0.2l0,0
		c-0.2-0.3-0.3-0.6-0.6-0.8c0,0,0-0.1-0.1-0.1c0-0.1,0-0.1-0.1-0.2c0-0.1-0.1-0.1-0.1-0.2c-0.1-0.1-0.1-0.1-0.2-0.2l0,0
		c-0.3-0.3-0.5-0.6-0.9-0.9c-0.1-0.1-0.3-0.2-0.4-0.3c-0.1,0-0.1-0.1-0.2-0.1l0,0c0,0-0.1-0.1,0-0.1l0,0c0,0,0,0,0-0.1
		c0,0,0,0-0.1,0.1H32c-0.1-0.1-0.2-0.2-0.3-0.2l0,0l0,0l0,0c0,0,0,0-0.1,0h-0.1l0,0L31,36.1L30.9,36c-0.1,0-0.2-0.1-0.3-0.1
		c-0.1-0.1-0.2-0.1-0.3-0.1c-0.1,0-0.2-0.1-0.3-0.1c-0.2,0-0.4-0.1-0.6-0.2c-0.1,0-0.1-0.1-0.2-0.1c0,0-0.4,0-0.4,0.1
		c-0.4,0.1-0.4,0.2-0.7,0.4c0,0-0.1,0-0.1,0.1c-0.1,0.1-0.1,0.1-0.3,0.1l-0.1,0.1l-0.1,0.1c0,0-0.1,0-0.2,0.1
		c-0.2,0.1-0.2,0.3-0.4,0.4c-0.1,0-0.2,0.2-0.2,0.2c-0.2,0.3-0.5,0.5-0.7,0.8c-0.1,0.2-0.4,0.3-0.5,0.6c-0.1,0-0.1,0.1-0.1,0.1
		c0,0.1-0.1,0.1-0.1,0.2c-0.2,0.2-0.5,0.4-0.6,0.6c-0.2,0.3-0.5,0.6-0.7,1c0,0,0,0.1-0.1,0.1c-0.5,0.7-0.9,1.5-1.5,2.2L22.1,43
		c0,0,0,0.1-0.1,0.1c0,0.1-0.1,0.2-0.2,0.3c0,0.2-0.2,0.3-0.3,0.5c-0.1,0.2-0.2,0.4-0.3,0.5c-0.2,0.5-0.5,0.9-0.7,1.4
		c-0.1,0.2-0.2,0.4-0.3,0.7c-0.1,0.2-0.1,0.5-0.2,0.7c-0.2,0.3-0.4,0.5-0.6,0.8c0,0.1-0.2,0.1-0.2,0.2c-0.3,0.2-0.4,0.5-0.6,0.8
		c0,0.1-0.1,0.2-0.1,0.3c-0.1,0.1-0.2,0.3-0.4,0.4c0,0.1-0.1,0.1-0.1,0.2C17.8,50.5,17.4,51,17.1,51.6"/>
</g>
<path class="st0" d="M48.8,13.7V2.5c-0.2,0-0.4-0.1-0.6-0.1c-0.3,0-0.5,0.1-0.7,0.2c-0.2,0-0.2,0.1-0.5,0.1c-0.1-0.1-0.3,0.1-0.4,0
	c-0.2,0-0.5,0-0.7,0.1c-0.1,0-0.2,0.1-0.2,0.1c-0.1,0-0.2,0-0.3,0.1c-0.2,0.1-0.2,0.4-0.4,0.4c-0.4,0.2-0.8,0.4-1.1,0.6
	c-0.3,0.1-0.5,0.4-0.7,0.6c-0.5,0.4-1.1,0.5-1.5,0.9c-0.2,0.1-0.4,0.2-0.6,0.4c-0.1,0-0.2,0.1-0.3,0.2s-0.2,0.2-0.3,0.3
	c-0.2,0.1-0.5,0.2-0.7,0.3c-0.3,0.2-0.6,0.3-0.9,0.5c-0.3,0.2-0.7,0.4-1,0.5c-0.2,0.1-0.3,0.2-0.5,0.2c-0.3,0.1-0.5,0.3-0.7,0.5
	c-0.2,0.3-0.5,0.6-0.8,0.9c-0.2,0.1-0.4,0.2-0.6,0.4c-0.1,0-0.2,0.1-0.3,0.2c-0.2,0.2-0.4,0.2-0.6,0.4c-0.1,0-0.2,0.1-0.3,0.1
	c-0.2,0.1-0.3,0.1-0.5,0.2c-0.2,0.2-0.6,0.2-0.9,0.3c-0.2,0-0.4,0.1-0.5,0.1c-0.2,0.1-0.4,0-0.6,0.2c-0.1,0.1-0.3,0.2-0.4,0.2
	c-0.3,0.1-0.5,0.3-0.7,0.4c-0.5,0.1-1,0.3-1.6,0.4c-0.3,0-0.3-0.1-0.5,0c-0.1-0.1-0.3,0-0.3,0l0,0c-0.3,0-0.3,0.2-0.5,0.3
	c-0.4,0.1-0.7,0.5-1.1,0.7c-0.2,0.2-0.6,0.2-0.9,0.4c-0.3,0.1-0.8,0.3-0.9,0.3c-0.2-0.1-0.4,0.2-0.5,0.2c-0.1,0.1-0.2,0.2-0.3,0.3
	c-0.1-0.1-0.1,0-0.2,0c-0.1,0.1-0.3,0.1-0.4,0.2c-0.2,0.2-0.4,0.1-0.3,0.3c-0.1,0.1-0.1,0.2-0.1,0.3c0.2,0.2,0.2,0.5,0.5,0.7
	c0,0.1,0.1,0.1,0.2,0.2c0.2,0,0.3,0.2,0.6,0.2c0.1,0.1,0.3,0.1,0.4,0.2s0.2,0.3,0.3,0.3c0.2,0,0.4,0.1,0.6,0.2
	c0.1,0.1,0.2,0,0.2,0.1c0.1,0,0.2,0.1,0.4,0c0.1,0.2,0.3,0.2,0.4,0.4c0.1,0,0.2,0.1,0.3,0.2c0.1,0,0.1,0.1,0.2,0.2
	c0.2,0.2,0.4,0.3,0.4,0.5c0,0.1,0.1,0.2,0.1,0.3c-0.1,0.1,0.2,0.2,0.2,0.2c0,0.2,0.2,0.3,0.1,0.4c0,0.1,0,0.3,0.1,0.4
	c0.2,0.2-0.1,0.3,0,0.5c0,0.1-0.1,0,0,0.1c0.2,0.2,0,0.5,0.1,0.7l-0.1,0.5c-0.2,0.1-0.1,0.3-0.3,0.4c-0.1,0.2-0.4,0.3-0.4,0.5
	s-0.1,0.3,0,0.5c0.2,0.1,0.1,0.3,0.3,0.4c0.3,0.1,1.1,0.5,1.4,0.5c0.1-0.1,0.2,0,0.3,0c0.1,0.2,0.2,0,0.4,0l0,0c0.2,0,0.4-0.1,0.6,0
	s0.5,0,0.7-0.1h0.2c0.3-0.1,0.5-0.2,0.7-0.4c0.1,0,0.2-0.1,0.2-0.1c0.2-0.1,0.4-0.2,0.6-0.2c0.1-0.1,0.3-0.2,0.4-0.2
	c0.1-0.1,0.3-0.1,0.4-0.1c0.6-0.3,1-0.9,1.7-1c0.5-0.3,1-0.4,1.6-0.7h0.1c0.3-0.1,0.6-0.3,0.9-0.3c0.6-0.2,1-0.6,1.6-0.8
	c0.2,0,0.4-0.2,0.6-0.3c0.3-0.3,0.7-0.2,1.1-0.4h0.1c0.4-0.2,0.9-0.4,1.2-0.8c0.2-0.1,0.4-0.2,0.6-0.4c0.2-0.3,0.5-0.4,0.8-0.6
	l0.3-0.3c0.1,0,0.2-0.1,0.3-0.2c0.2-0.1,0.4-0.3,0.7-0.5c0.2,0,0.3-0.2,0.5-0.3c0.1-0.1,0.3-0.1,0.3-0.2c0.1-0.2,0.3-0.1,0.4-0.2
	c0.2,0,0.3-0.2,0.5-0.3l0.6-0.3c0.4-0.4,0.9-0.2,1.2-0.7C48.3,14.2,48.4,14,48.8,13.7"/>
<path class="st1" d="M117.4,41.2c-1,0-2,0.8-3,2.6l0,0v-2.4h-2v10.3h2v-5.4c0-1.8,1.1-3.2,2.5-3.2c0.4,0,1.1,0.3,1.7,0.8l1.1-1.8
	C118.8,41.5,118.1,41.2,117.4,41.2z"/>
<path class="st1" d="M72.8,45.6c0,3.8-2.3,6.4-7,6.4c-3.3,0-6.5-1.9-6.5-6.1v-9.8h2.3v9.3c0,1.8,0.2,2.5,0.9,3.2
	c0.9,0.9,2,1.3,3.4,1.3c1.7,0,3-0.6,3.7-1.3c0.8-0.8,1-2,1-3.4v-9.1h2.3L72.8,45.6L72.8,45.6z"/>
<path class="st1" d="M77.2,42.8L77.2,42.8c0.8-1,2-1.6,3.1-1.6c2,0,3.5,1.3,3.5,4.2v6.4h-2v-6.4c0-1.5-0.8-2.5-2-2.5
	c-0.9,0-1.6,0.4-2.6,1.5v7.4h-2V41.4h2V42.8z"/>
<path class="st1" d="M88.6,51.7h-2V41.4h2V51.7z M87.6,39.5c-0.7,0-1.2-0.6-1.2-1.2s0.6-1.2,1.2-1.2s1.2,0.6,1.2,1.2
	S88.3,39.5,87.6,39.5z"/>
<path class="st1" d="M90.1,41.4h2.2l2.8,6.3l2.7-6.3h2.2l-4.6,10.5h-0.7L90.1,41.4z"/>
<path class="st1" d="M102.5,45.5c0.3-1.6,1.2-2.6,2.8-2.6c1.4,0,2.3,1,2.4,2.6H102.5z M109.6,48.7c-1.2,0.8-2.4,1.2-3.6,1.2
	c-2,0-3.2-1.1-3.5-3.1h7.3c0-3.8-1.7-5.7-4.5-5.7c-2.9,0-4.8,2.1-4.8,5.2c0,2.9,1.8,5.5,5,5.5c1.7,0,2.9-0.4,4.1-1.2V48.7z"/>
<path class="st1" d="M126.4,44.1c-1.1-0.8-2.2-1.1-3-1.1s-1.4,0.4-1.4,0.9s0.7,1,2.5,2.1c1.7,1.1,2.3,1.8,2.3,2.9c0,1.8-1.4,3-3.4,3
	c-1.3,0-2.3-0.3-3.6-0.9v-2.2c1.3,0.9,2.6,1.4,3.4,1.4s1.5-0.4,1.5-1.2c0-1.4-4.8-2.2-4.8-5c0-1.7,1.3-2.8,3.4-2.8c1,0,2,0.3,3,0.9
	L126.4,44.1L126.4,44.1z"/>
<path class="st1" d="M131.3,51.7h-2V41.4h2V51.7z M130.2,39.5c-0.7,0-1.2-0.6-1.2-1.2s0.6-1.2,1.2-1.2c0.7,0,1.2,0.6,1.2,1.2
	S130.9,39.5,130.2,39.5z"/>
<path class="st1" d="M136.8,41.4h3.3v1.8h-3.3v5.3c0,1.2,0.9,1.6,1.5,1.6c0.7,0,1.5-0.3,2.3-0.8v1.9c-0.7,0.4-1.8,0.7-2.5,0.7
	c-2.2,0-3.4-1.4-3.4-3.2v-5.5H133V43l3.8-3.7V41.4z"/>
<path class="st1" d="M143.7,57h-2.3l3.5-7.5l-4-8.1h2.3l2.8,5.8l2.7-5.8h2.3L143.7,57z"/>
<path class="st1" d="M162.6,43c2,0,3.5,1.4,3.5,3.5c0,2.2-1.4,3.6-3.5,3.6c-2,0-3.3-1.4-3.3-3.6C159.2,44.5,160.6,43,162.6,43z
	 M162.6,41.2c-3.1,0-5.5,2.3-5.5,5.3c0,3.2,2.3,5.5,5.5,5.5c3.3,0,5.6-2.2,5.6-5.5C168.2,43.4,165.8,41.2,162.6,41.2z"/>
<path class="st1" d="M175.8,38c-0.3-0.1-0.6-0.2-0.9-0.2c-1.7,0-2.2,1-2.2,2.6v1h1.9v1.8h-1.9v8.5h-2v-8.5h-1.4v-1.8h1.4v-0.8
	c0-2,0.5-3,1.3-3.8c0.9-0.9,2-1.3,3.8-0.8L175.8,38L175.8,38z"/>
<path class="st1" d="M190.3,39.5c-1.3-1.3-2.6-1.6-3.7-1.6c-1.5,0-2.5,0.8-2.5,1.9c0,3,6.8,3,6.8,8c0,2.5-1.9,4.3-4.4,4.3
	c-1.7,0-3.1-0.5-4.4-1.4v-2.9c1.2,1.5,2.6,2.3,4.1,2.3c1.7,0,2.6-1.1,2.6-2c0-3.2-6.8-3.6-6.8-7.9c0-2.6,1.9-4.2,4.8-4.2
	c1.2,0,2.4,0.4,3.5,1.1L190.3,39.5L190.3,39.5z"/>
<path class="st1" d="M195.5,41.4h3.3v1.8h-3.3v5.3c0,1.2,0.9,1.6,1.5,1.6c0.7,0,1.5-0.3,2.3-0.8v1.9c-0.7,0.4-1.8,0.7-2.5,0.7
	c-2.2,0-3.4-1.4-3.4-3.2v-5.5h-1.8V43l3.8-3.7L195.5,41.4L195.5,41.4z"/>
<path class="st1" d="M203.3,50.6c0,0.8-0.6,1.4-1.4,1.4c-0.8,0-1.4-0.6-1.4-1.4s0.6-1.4,1.4-1.4S203.3,49.8,203.3,50.6z"/>
<path class="st1" d="M220,50.6c-2.1,0.9-3.8,1.3-6,1.3c-4.8,0-8.3-3.4-8.3-8s3.6-8.1,8.4-8.1c1.8,0,3.1,0.3,5.6,1.3v2.3
	c-1.8-1-3.7-1.5-5.6-1.5c-3.4,0-6,2.6-6,6c0,3.5,2.6,6,6.3,6c1.2,0,2.3-0.3,3.4-0.6v-3.2h-3v-2h5.3L220,50.6L220,50.6z"/>
<path class="st1" d="M227.6,49.6c-0.6,0.5-1.1,0.9-1.8,0.9c-0.9,0-1.5-0.6-1.5-1.4c0-1.2,1.5-1.8,3.3-2.4V49.6z M231.1,49.9
	c-0.5,0.3-0.9,0.6-1.1,0.6c-0.3,0-0.4-0.1-0.4-0.5v-5.3c0-2.3-1.7-3.4-3.7-3.4c-1.5,0-2.6,0.5-3.4,1.4v2.2c1-1.2,2.1-1.7,3.3-1.7
	s1.9,0.5,1.9,1.8v0.6l-1.8,0.6c-1.7,0.6-3.5,1.2-3.5,3.3c0,1.3,1,2.5,2.5,2.5c0.9,0,1.9-0.3,2.8-1.1c0.2,0.7,0.7,1.1,1.6,1.1
	c0.6,0,1-0.2,2-0.8v-1.3C231.3,49.9,231.1,49.9,231.1,49.9z"/>
<path class="st1" d="M234.8,51.7h-2V36h2V51.7z"/>
<path class="st1" d="M239.6,51.7h-2V36h2V51.7z"/>
<path class="st1" d="M243.6,45.5c0.3-1.6,1.2-2.6,2.8-2.6c1.4,0,2.3,1,2.4,2.6H243.6z M250.7,48.7c-1.2,0.8-2.4,1.2-3.6,1.2
	c-2,0-3.2-1.1-3.5-3.1h7.3c0-3.8-1.7-5.7-4.5-5.7c-2.9,0-4.8,2.1-4.8,5.2c0,2.9,1.8,5.5,5,5.5c1.7,0,2.9-0.4,4.1-1.2V48.7z"/>
<path class="st1" d="M255.1,42.8L255.1,42.8c0.8-1,2-1.6,3.1-1.6c2,0,3.5,1.3,3.5,4.2v6.4h-2v-6.4c0-1.5-0.8-2.5-2-2.5
	c-0.9,0-1.6,0.4-2.6,1.5v7.4h-2V41.4h2V42.8z"/>
</svg>
