<svg id="Layer_1" data-name="Layer 1" xmlns="http://www.w3.org/2000/svg" xmlns:xlink="http://www.w3.org/1999/xlink" viewBox="0 0 462.26 303.61"><defs><style>.cls-1{fill:#fff;}.cls-2{fill:url(#New_Gradient_Swatch);}</style><linearGradient id="New_Gradient_Swatch" x1="355.78" y1="4.27" x2="463.54" y2="112.03" gradientTransform="translate(18.92 -18.92)" gradientUnits="userSpaceOnUse"><stop offset="0" stop-color="#00ed9e"/><stop offset="1" stop-color="#0071e9"/></linearGradient></defs><path class="cls-1" d="M84.47,100.32a15.28,15.28,0,0,1-5.13-4.4,11,11,0,0,1,.16-12.7,13.36,13.36,0,0,1,5.79-4.3,22,22,0,0,1,8.45-1.52,19.8,19.8,0,0,1,8.45,1.7,13.2,13.2,0,0,1,5.68,4.78,12.59,12.59,0,0,1,2,7.05h-9.4a5.77,5.77,0,0,0-1.76-4.41,7.33,7.33,0,0,0-5.16-1.63,9.59,9.59,0,0,0-3.68.63,5,5,0,0,0-2.29,1.73,4.16,4.16,0,0,0-.76,2.45,4,4,0,0,0,2.07,3.41,25.62,25.62,0,0,0,6.43,2.75q7.36,2.25,11,5.64a11.37,11.37,0,0,1,3.58,8.67,11,11,0,0,1-1.95,6.57,12.16,12.16,0,0,1-5.54,4.2A22.63,22.63,0,0,1,94,122.38a23.67,23.67,0,0,1-8.7-1.59,15.3,15.3,0,0,1-6.64-4.89,12.78,12.78,0,0,1-2.55-8.07h9.47q0,3.75,2.18,5.42A10.06,10.06,0,0,0,94,114.92a7.76,7.76,0,0,0,4.86-1.29,4.12,4.12,0,0,0,1.64-3.4,4.73,4.73,0,0,0-.67-2.61,6.32,6.32,0,0,0-2.43-2,32.81,32.81,0,0,0-5.23-2.07A44.16,44.16,0,0,1,84.47,100.32Z"/><path class="cls-1" d="M131.28,114.71v6.83a15.85,15.85,0,0,1-5.35.84q-9.57,0-9.56-9.74V95.86h-4.6V89.24h4.6v-8h9.08v8h5.47v6.62h-5.47v15.72a3.56,3.56,0,0,0,.75,2.63,3.63,3.63,0,0,0,2.55.71A13.15,13.15,0,0,0,131.28,114.71Z"/><path class="cls-1" d="M142,113.12a4.44,4.44,0,0,1,1.81,1.73,5.08,5.08,0,0,1,0,4.9,4.51,4.51,0,0,1-1.81,1.73,5.55,5.55,0,0,1-2.68.63,5.46,5.46,0,0,1-2.65-.63,4.54,4.54,0,0,1-1.8-1.73,5.15,5.15,0,0,1,0-4.9,4.48,4.48,0,0,1,1.8-1.73,5.46,5.46,0,0,1,2.65-.63A5.55,5.55,0,0,1,142,113.12Z"/><path class="cls-1" d="M183.21,119.1a21.32,21.32,0,0,1-5.62,2.33,29.82,29.82,0,0,1-7.89.95,19.55,19.55,0,0,1-10-2.5,16.8,16.8,0,0,1-6.67-7.26,25.43,25.43,0,0,1-2.37-11.44V98.63A26.15,26.15,0,0,1,153,87.17a16.63,16.63,0,0,1,6.46-7.29,18.43,18.43,0,0,1,9.69-2.51q8.28,0,12.51,3.91t5,10.76h-9.14a8.87,8.87,0,0,0-2.41-5.26q-1.91-1.8-5.68-1.8a7.74,7.74,0,0,0-6.81,3.45q-2.37,3.46-2.37,10.14v2.61q0,6.73,2.55,10.16t7.53,3.43c3.2,0,5.51-.68,6.91-2v-7.25h-8V98.63h17.41v17.65A14.94,14.94,0,0,1,183.21,119.1Z"/><path class="cls-1" d="M218.1,118.23a12.19,12.19,0,0,0,1,3v.51H210a10,10,0,0,1-.87-2.92,10.31,10.31,0,0,1-8.15,3.52,12.37,12.37,0,0,1-5.59-1.26,10.09,10.09,0,0,1-4-3.49,9,9,0,0,1-1.46-5,9.19,9.19,0,0,1,3.82-7.92q3.81-2.79,11.24-2.79h3.7v-1.83a5,5,0,0,0-1.14-3.5,4.39,4.39,0,0,0-3.43-1.25,4.87,4.87,0,0,0-3.23,1,3.46,3.46,0,0,0-1.16,2.79h-9.08a8.82,8.82,0,0,1,1.73-5.3,11.64,11.64,0,0,1,4.9-3.75,18.09,18.09,0,0,1,7.33-1.39,16.86,16.86,0,0,1,6.82,1.3,10.32,10.32,0,0,1,4.66,3.87,11.37,11.37,0,0,1,1.68,6.32v13.62A24.57,24.57,0,0,0,218.1,118.23Zm-11.6-3.59a5.61,5.61,0,0,0,2.19-2.09V107.1h-3.46a6.94,6.94,0,0,0-4.7,1.37A4.56,4.56,0,0,0,199,112a3.16,3.16,0,0,0,1.1,2.49,4.29,4.29,0,0,0,2.93,1A7,7,0,0,0,206.5,114.64Z"/><path class="cls-1" d="M222.84,121.78V75.59H232v46.19Z"/><path class="cls-1" d="M237.5,121.78V75.59h9.11v46.19Z"/><path class="cls-1" d="M280.33,108.46H259.77a8,8,0,0,0,2.52,4.82,7.46,7.46,0,0,0,5.17,1.79,10.6,10.6,0,0,0,4.35-.88,9,9,0,0,0,3.41-2.67l4.36,5a13.25,13.25,0,0,1-5,4.14,16.6,16.6,0,0,1-7.71,1.69,17.13,17.13,0,0,1-8.67-2.11,14.36,14.36,0,0,1-5.65-5.71,16.26,16.26,0,0,1-2-8v-1.14a19.87,19.87,0,0,1,1.83-8.69,14.08,14.08,0,0,1,5.29-6,15.21,15.21,0,0,1,8.18-2.15,15,15,0,0,1,7.85,2,12.52,12.52,0,0,1,4.93,5.55,19.77,19.77,0,0,1,1.68,8.46Zm-8.9-6.8A6.22,6.22,0,0,0,270,97.48,5.39,5.39,0,0,0,265.81,96a5,5,0,0,0-4,1.71,9.23,9.23,0,0,0-1.91,4.72h11.57Z"/><path class="cls-1" d="M308.76,91.58q2.69,2.92,2.68,9.57v20.63h-9.08V101.12c0-1.92-.41-3.26-1.23-4A5.49,5.49,0,0,0,297.31,96a6.06,6.06,0,0,0-3.08.75,5.66,5.66,0,0,0-2.12,2.14v22.91H283V89.24h8.52l.3,3.76a11.32,11.32,0,0,1,4.09-3.24,12.1,12.1,0,0,1,5.26-1.12Q306.09,88.64,308.76,91.58Z"/><path class="cls-1" d="M107.33,175.75v7.6H77.77V139.58H107.3v7.63H87.22v10h17.1v7.36H87.22v11.22Z"/><path class="cls-1" d="M135.55,153.15q2.67,2.94,2.68,9.58v20.62h-9.08V162.7c0-1.93-.42-3.26-1.23-4a5.51,5.51,0,0,0-3.83-1.13,6.08,6.08,0,0,0-3.08.75,5.68,5.68,0,0,0-2.11,2.13v22.91h-9.09V150.82h8.51l.3,3.76a11.63,11.63,0,0,1,4.09-3.25,12.27,12.27,0,0,1,5.26-1.11Q132.88,150.22,135.55,153.15Z"/><path class="cls-1" d="M170.93,137.17v46.18h-8.18l-.45-3.48a10,10,0,0,1-8.24,4.09,11.17,11.17,0,0,1-6.81-2.12,13.19,13.19,0,0,1-4.36-5.85,22.86,22.86,0,0,1-1.49-8.51v-.63a23.6,23.6,0,0,1,1.49-8.72,12.75,12.75,0,0,1,4.36-5.83,11.4,11.4,0,0,1,6.87-2.08,9.87,9.87,0,0,1,7.73,3.52V137.17Zm-9.08,36.2V160.8a5.53,5.53,0,0,0-5.41-3.24,4.83,4.83,0,0,0-4.53,2.52,13.78,13.78,0,0,0-1.43,6.77v.63a13.59,13.59,0,0,0,1.4,6.66,4.78,4.78,0,0,0,4.49,2.48A5.69,5.69,0,0,0,161.85,173.37Z"/><path class="cls-1" d="M176.07,158.25a13.76,13.76,0,0,1,5.3-5.89,17.38,17.38,0,0,1,16.71,0,13.74,13.74,0,0,1,5.32,5.89,19.37,19.37,0,0,1,1.82,8.54v.63a19.25,19.25,0,0,1-1.82,8.52,13.75,13.75,0,0,1-5.31,5.88,15.65,15.65,0,0,1-8.32,2.14,15.82,15.82,0,0,1-8.38-2.14,13.71,13.71,0,0,1-5.32-5.88,19.25,19.25,0,0,1-1.82-8.52v-.63A19.37,19.37,0,0,1,176.07,158.25Zm8.79,15.89a5.33,5.33,0,0,0,4.91,2.51,5.22,5.22,0,0,0,4.83-2.53,12.71,12.71,0,0,0,1.54-6.7v-.63a12.87,12.87,0,0,0-1.54-6.71,5.91,5.91,0,0,0-9.74,0,12.94,12.94,0,0,0-1.53,6.69v.63A12.84,12.84,0,0,0,184.86,174.14Z"/><path class="cls-1" d="M249.47,150.82l-8.12,32.53h-7.61l-6-20-6,20h-7.61l-8.11-32.53h8.72l4,20.27,5.71-20.27H231L236.72,171l4-20.18Z"/><path class="cls-1" d="M296.57,153.17q2.71,2.94,2.71,9.56v20.62H290.2V162.7a7.51,7.51,0,0,0-.54-3.17,3,3,0,0,0-1.55-1.55,6.64,6.64,0,0,0-2.54-.42,5.31,5.31,0,0,0-3.12.89,5.94,5.94,0,0,0-2.05,2.5,5.7,5.7,0,0,1,0,.7v21.7h-9.08V162.79a7.64,7.64,0,0,0-.54-3.19,3.12,3.12,0,0,0-1.55-1.59,6.33,6.33,0,0,0-2.57-.45,5.68,5.68,0,0,0-3,.77,5.6,5.6,0,0,0-2.06,2.17v22.85h-9.08V150.82H261l.3,3.64a10.88,10.88,0,0,1,4-3.14,12.56,12.56,0,0,1,5.34-1.1,10.54,10.54,0,0,1,5.19,1.22,8.05,8.05,0,0,1,3.35,3.71,11.11,11.11,0,0,1,4.07-3.65,12.05,12.05,0,0,1,5.64-1.28Q293.88,150.22,296.57,153.17Z"/><path class="cls-1" d="M332.55,170H312a8,8,0,0,0,2.52,4.82,7.51,7.51,0,0,0,5.17,1.79,10.61,10.61,0,0,0,4.35-.89,9,9,0,0,0,3.41-2.66l4.36,5a13.18,13.18,0,0,1-5,4.15,16.72,16.72,0,0,1-7.71,1.69,17.13,17.13,0,0,1-8.67-2.11,14.43,14.43,0,0,1-5.65-5.71,16.29,16.29,0,0,1-2-8V167a19.87,19.87,0,0,1,1.83-8.69,14,14,0,0,1,5.29-6,15.21,15.21,0,0,1,8.18-2.15,14.9,14.9,0,0,1,7.85,2,12.49,12.49,0,0,1,4.93,5.54,19.85,19.85,0,0,1,1.68,8.47Zm-8.9-6.8a6.2,6.2,0,0,0-1.45-4.18,5.39,5.39,0,0,0-4.17-1.53,5,5,0,0,0-4,1.71,9.19,9.19,0,0,0-1.91,4.72h11.57Z"/><path class="cls-1" d="M361,153.15q2.68,2.94,2.68,9.58v20.62h-9.08V162.7c0-1.93-.41-3.26-1.23-4a5.49,5.49,0,0,0-3.82-1.13,6.08,6.08,0,0,0-3.08.75,5.7,5.7,0,0,0-2.12,2.13v22.91h-9.08V150.82h8.51l.3,3.76a11.46,11.46,0,0,1,4.09-3.25,12.24,12.24,0,0,1,5.26-1.11Q358.32,150.22,361,153.15Z"/><path class="cls-1" d="M384.78,176.29v6.82a15.56,15.56,0,0,1-5.35.85q-9.56,0-9.56-9.75V157.44h-4.6v-6.62h4.6v-8.06H379v8.06h5.47v6.62H379v15.72a3.56,3.56,0,0,0,.75,2.63,3.7,3.7,0,0,0,2.56.71A13,13,0,0,0,384.78,176.29Z"/><path class="cls-1" d="M80.11,207.51a3.28,3.28,0,0,0-.74,2.29v1.79H82.8v1.29H79.37v13H77.8v-13H75.42v-1.29H77.8V209.8a4.61,4.61,0,0,1,1.12-3.33A4.08,4.08,0,0,1,82,205.3a6.23,6.23,0,0,1,1.7.23l-.13,1.32a6.5,6.5,0,0,0-1.45-.16A2.58,2.58,0,0,0,80.11,207.51Z"/><path class="cls-1" d="M84.74,214.82A6.18,6.18,0,0,1,87,212.25a6.5,6.5,0,0,1,6.7,0,6.15,6.15,0,0,1,2.26,2.57,8.53,8.53,0,0,1,.79,3.71V219a8.6,8.6,0,0,1-.79,3.72,6.15,6.15,0,0,1-2.24,2.56,6.2,6.2,0,0,1-9-2.56A8.46,8.46,0,0,1,84,219v-.43A8.39,8.39,0,0,1,84.74,214.82Zm1.36,7.07A4.77,4.77,0,0,0,87.75,224a4.32,4.32,0,0,0,2.6.8,4.23,4.23,0,0,0,2.58-.8,4.92,4.92,0,0,0,1.65-2.13,7.54,7.54,0,0,0,.56-2.93v-.43a7.33,7.33,0,0,0-.57-2.91,5.07,5.07,0,0,0-1.66-2.14,4.53,4.53,0,0,0-5.17,0,5,5,0,0,0-1.64,2.14,7.33,7.33,0,0,0-.56,2.91V219A7.36,7.36,0,0,0,86.1,221.89Z"/><path class="cls-1" d="M105.8,212.92a7.43,7.43,0,0,0-1.06-.09,3.8,3.8,0,0,0-2.55.86,4.6,4.6,0,0,0-1.42,2.34v9.87H99.18V211.59h1.55l0,2.25a4.59,4.59,0,0,1,1.61-1.86,4.33,4.33,0,0,1,2.41-.66,4.15,4.15,0,0,1,.59.05,2.53,2.53,0,0,1,.47.11Z"/><path class="cls-1" d="M123.77,207.36a5.06,5.06,0,0,1,2.2,2,5.87,5.87,0,0,1,.75,3,6,6,0,0,1-.74,3.06,4.76,4.76,0,0,1-2.2,1.94,8.39,8.39,0,0,1-3.55.68H115.3v7.84h-1.63V206.64h6.56A7.92,7.92,0,0,1,123.77,207.36Zm.12,8.14a4.12,4.12,0,0,0,1.2-3.09,4.66,4.66,0,0,0-.52-2.22,3.73,3.73,0,0,0-1.6-1.57,5.64,5.64,0,0,0-2.74-.59H115.3v8.64h4.93A5.08,5.08,0,0,0,123.89,215.5Z"/><path class="cls-1" d="M135.78,212.92a7.43,7.43,0,0,0-1.06-.09,3.85,3.85,0,0,0-2.56.86,4.65,4.65,0,0,0-1.41,2.34v9.87h-1.59V211.59h1.55l0,2.25a4.59,4.59,0,0,1,1.61-1.86,4.31,4.31,0,0,1,2.41-.66,4.15,4.15,0,0,1,.59.05,2.53,2.53,0,0,1,.47.11Z"/><path class="cls-1" d="M137.41,214.82a6.13,6.13,0,0,1,2.25-2.57,6,6,0,0,1,3.34-.93,6,6,0,0,1,5.61,3.5,8.39,8.39,0,0,1,.79,3.71V219a8.46,8.46,0,0,1-.79,3.72,6.15,6.15,0,0,1-2.24,2.56,6,6,0,0,1-3.35.93,6,6,0,0,1-5.61-3.49,8.6,8.6,0,0,1-.79-3.72v-.43A8.53,8.53,0,0,1,137.41,214.82Zm1.36,7.07a4.92,4.92,0,0,0,1.65,2.13,4.61,4.61,0,0,0,5.19,0,4.9,4.9,0,0,0,1.64-2.13,7.36,7.36,0,0,0,.56-2.93v-.43a7.33,7.33,0,0,0-.57-2.91,5,5,0,0,0-1.66-2.14,4.51,4.51,0,0,0-5.16,0,5,5,0,0,0-1.65,2.14,7.33,7.33,0,0,0-.56,2.91V219A7.36,7.36,0,0,0,138.77,221.89Z"/><path class="cls-1" d="M153.83,218.39a4.16,4.16,0,0,1-1.65-1.26,3.19,3.19,0,0,1-.56-1.92,3.33,3.33,0,0,1,.62-2,4.15,4.15,0,0,1,1.76-1.4,6.35,6.35,0,0,1,2.66-.53,6.82,6.82,0,0,1,2.82.55,4.36,4.36,0,0,1,1.84,1.52,4,4,0,0,1,.63,2.21h-1.6a2.59,2.59,0,0,0-.44-1.43,3.18,3.18,0,0,0-1.27-1.09,4.58,4.58,0,0,0-2-.41,4.67,4.67,0,0,0-2,.36,2.69,2.69,0,0,0-1.14.93,2.14,2.14,0,0,0-.37,1.2,2.17,2.17,0,0,0,.3,1.17,2.7,2.7,0,0,0,1.13.87A12.41,12.41,0,0,0,157,218a13.3,13.3,0,0,1,2.87,1,4.08,4.08,0,0,1,1.62,1.34,3.36,3.36,0,0,1,.53,1.92,3.46,3.46,0,0,1-.66,2.08,4.2,4.2,0,0,1-1.85,1.42,8,8,0,0,1-5.79-.09A4.56,4.56,0,0,1,151.8,224a3.77,3.77,0,0,1-.66-2.13h1.57a2.66,2.66,0,0,0,1.28,2.25,5.33,5.33,0,0,0,2.76.69,5,5,0,0,0,2-.36,3,3,0,0,0,1.26-.94,2.07,2.07,0,0,0,.43-1.27,2.35,2.35,0,0,0-.82-1.78,6.34,6.34,0,0,0-3-1.23A13.48,13.48,0,0,1,153.83,218.39Z"/><path class="cls-1" d="M176.3,218.89a10.34,10.34,0,0,1-.65,3.79,5.7,5.7,0,0,1-1.88,2.57,4.83,4.83,0,0,1-2.94.92,6,6,0,0,1-2.61-.54,4.93,4.93,0,0,1-1.87-1.54v7.32h-1.59V211.59h1.48l.08,2a5.15,5.15,0,0,1,1.87-1.7,5.59,5.59,0,0,1,2.62-.59,4.92,4.92,0,0,1,3,.9,5.52,5.52,0,0,1,1.88,2.53,10.5,10.5,0,0,1,.65,3.86Zm-1.59-.28a9.24,9.24,0,0,0-.47-3,4.56,4.56,0,0,0-1.42-2.1,3.63,3.63,0,0,0-2.37-.77,4.16,4.16,0,0,0-2.58.75,4.89,4.89,0,0,0-1.52,2v6.9a4.26,4.26,0,0,0,4.13,2.5,3.6,3.6,0,0,0,2.34-.77,4.54,4.54,0,0,0,1.42-2.11,9.26,9.26,0,0,0,.47-3.05Z"/><path class="cls-1" d="M179.7,218.84v.3a6.53,6.53,0,0,0,.62,2.88,5.07,5.07,0,0,0,1.73,2.06,4.44,4.44,0,0,0,2.54.75,5,5,0,0,0,2.26-.47,4.79,4.79,0,0,0,1.75-1.49l1,.76a5.71,5.71,0,0,1-2,1.84,6.11,6.11,0,0,1-3,.7,6.19,6.19,0,0,1-3.3-.9,6.3,6.3,0,0,1-2.29-2.5,7.82,7.82,0,0,1-.82-3.63v-.57a8.23,8.23,0,0,1,.84-3.79,6.26,6.26,0,0,1,2.25-2.56,5.55,5.55,0,0,1,3.05-.9,5.43,5.43,0,0,1,3.05.84,5.15,5.15,0,0,1,1.95,2.31,8.28,8.28,0,0,1,.66,3.4v1Zm2.39-5.57a4.56,4.56,0,0,0-1.56,1.69,6.42,6.42,0,0,0-.77,2.53h8.56v-.17a5.9,5.9,0,0,0-.5-2.31,4,4,0,0,0-1.38-1.69,3.71,3.71,0,0,0-2.19-.65A4,4,0,0,0,182.09,213.27Z"/><path class="cls-1" d="M198.79,212.92a7.21,7.21,0,0,0-1.06-.09,3.8,3.8,0,0,0-2.55.86,4.67,4.67,0,0,0-1.42,2.34v9.87h-1.58V211.59h1.55l0,2.25a4.67,4.67,0,0,1,1.61-1.86,4.34,4.34,0,0,1,2.42-.66,4,4,0,0,1,.58.05,2.89,2.89,0,0,1,.48.11Z"/><path class="cls-1" d="M202.29,206.68a1.08,1.08,0,0,1,.29.77,1,1,0,0,1-.29.74,1.09,1.09,0,0,1-.8.3,1.06,1.06,0,0,1-.79-.3,1,1,0,0,1-.3-.74,1,1,0,0,1,.3-.77,1.07,1.07,0,0,1,.79-.31A1.09,1.09,0,0,1,202.29,206.68Zm-1.6,19.22V211.59h1.58V225.9Z"/><path class="cls-1" d="M211.46,226a4.47,4.47,0,0,1-.75.15,7.42,7.42,0,0,1-.94.06,3,3,0,0,1-2.3-.86,4.07,4.07,0,0,1-.83-2.9v-9.53H204v-1.29h2.61v-3.68h1.6v3.68h3v1.29h-3v9.53a2.65,2.65,0,0,0,.5,1.87,1.83,1.83,0,0,0,1.35.5,7.58,7.58,0,0,0,1.3-.15Z"/><path class="cls-1" d="M224.1,211.59,218,228.21a11,11,0,0,1-.77,1.65,4.14,4.14,0,0,1-1.23,1.28,3.53,3.53,0,0,1-2,.55,4.46,4.46,0,0,1-.64-.06,2.28,2.28,0,0,1-.57-.12v-1.32a1.84,1.84,0,0,0,.39.07l.41,0a2.87,2.87,0,0,0,1.95-.62,4.46,4.46,0,0,0,1.17-2l.71-1.91-5.4-14.19h1.72l4.46,12,4.16-12Z"/><path class="cls-1" d="M237.23,226a4.47,4.47,0,0,1-.75.15,7.42,7.42,0,0,1-.94.06,3.06,3.06,0,0,1-2.31-.86,4.12,4.12,0,0,1-.82-2.9v-9.53h-2.62v-1.29h2.62v-3.68H234v3.68h3v1.29h-3v9.53a2.65,2.65,0,0,0,.5,1.87,1.83,1.83,0,0,0,1.35.5,7.58,7.58,0,0,0,1.3-.15Z"/><path class="cls-1" d="M249.08,212.58a5.73,5.73,0,0,1,1.17,4v9.33h-1.58v-9.33a4.27,4.27,0,0,0-.86-3,3.38,3.38,0,0,0-2.52-.88,3.83,3.83,0,0,0-2.64,1,5.75,5.75,0,0,0-1.62,2.41v9.83h-1.59V205.58H241V214a5.65,5.65,0,0,1,2-1.95,5.25,5.25,0,0,1,2.69-.71A4.4,4.4,0,0,1,249.08,212.58Z"/><path class="cls-1" d="M260.13,212.92a7.19,7.19,0,0,0-1.05-.09,3.83,3.83,0,0,0-2.56.86,4.59,4.59,0,0,0-1.41,2.34v9.87h-1.59V211.59h1.55l0,2.25a4.59,4.59,0,0,1,1.61-1.86,4.28,4.28,0,0,1,2.41-.66,3.9,3.9,0,0,1,.58.05,2.47,2.47,0,0,1,.48.11Z"/><path class="cls-1" d="M261.77,214.82a6.13,6.13,0,0,1,2.25-2.57,6,6,0,0,1,3.33-.93,6,6,0,0,1,5.62,3.5,8.39,8.39,0,0,1,.79,3.71V219a8.46,8.46,0,0,1-.79,3.72,6.15,6.15,0,0,1-2.24,2.56,6.2,6.2,0,0,1-9-2.56A8.46,8.46,0,0,1,261,219v-.43A8.39,8.39,0,0,1,261.77,214.82Zm1.36,7.07a4.77,4.77,0,0,0,1.65,2.13,4.32,4.32,0,0,0,2.6.8A4.23,4.23,0,0,0,270,224a4.84,4.84,0,0,0,1.65-2.13,7.54,7.54,0,0,0,.56-2.93v-.43a7.33,7.33,0,0,0-.57-2.91,5.07,5.07,0,0,0-1.66-2.14,4.51,4.51,0,0,0-5.16,0,5,5,0,0,0-1.65,2.14,7.33,7.33,0,0,0-.56,2.91V219A7.36,7.36,0,0,0,263.13,221.89Z"/><path class="cls-1" d="M287,211.59V225.9h-1.52l0-1.81a5.09,5.09,0,0,1-4.55,2.08,4.56,4.56,0,0,1-3.47-1.31,5.78,5.78,0,0,1-1.24-4.12v-9.15h1.59v9.18a4.34,4.34,0,0,0,.9,3.08,3.17,3.17,0,0,0,2.4.94,4.83,4.83,0,0,0,2.87-.76A4,4,0,0,0,285.4,222V211.59Z"/><path class="cls-1" d="M301.19,211.59v14.06a6.79,6.79,0,0,1-.71,3.19,4.87,4.87,0,0,1-2,2.06,6.12,6.12,0,0,1-3,.72,6.45,6.45,0,0,1-2.78-.64,5.38,5.38,0,0,1-2.21-1.81l.89-1a5.88,5.88,0,0,0,1.84,1.56,4.81,4.81,0,0,0,2.17.5,4,4,0,0,0,3.13-1.2,4.75,4.75,0,0,0,1.12-3.36V224a5.12,5.12,0,0,1-1.86,1.57,5.68,5.68,0,0,1-2.59.56,4.78,4.78,0,0,1-2.91-.92,5.75,5.75,0,0,1-1.91-2.57,10,10,0,0,1-.67-3.79v-.28a10.28,10.28,0,0,1,.66-3.85,5.55,5.55,0,0,1,1.91-2.54,4.89,4.89,0,0,1,2.95-.9,5.34,5.34,0,0,1,2.62.61,5,5,0,0,1,1.84,1.72l.06-2.06ZM298,224.09a4.67,4.67,0,0,0,1.58-1.94v-6.62a4.8,4.8,0,0,0-1.51-2,4,4,0,0,0-2.61-.79,3.57,3.57,0,0,0-2.35.77,4.51,4.51,0,0,0-1.42,2.09,9.27,9.27,0,0,0-.46,3.05v.28a9.21,9.21,0,0,0,.46,3,4.5,4.5,0,0,0,1.41,2.1,3.56,3.56,0,0,0,2.34.76A4.39,4.39,0,0,0,298,224.09Z"/><path class="cls-1" d="M314.15,212.58a5.73,5.73,0,0,1,1.17,4v9.33h-1.58v-9.33a4.22,4.22,0,0,0-.87-3,3.34,3.34,0,0,0-2.51-.88,3.83,3.83,0,0,0-2.64,1,5.66,5.66,0,0,0-1.62,2.41v9.83h-1.59V205.58h1.59V214a5.65,5.65,0,0,1,2-1.95,5.25,5.25,0,0,1,2.69-.71A4.4,4.4,0,0,1,314.15,212.58Z"/><path class="cls-1" d="M337.28,208h-6.6V225.9h-1.62V208h-6.6v-1.39h14.82Z"/><path class="cls-1" d="M345.28,212.92a7.43,7.43,0,0,0-1.06-.09,3.85,3.85,0,0,0-2.56.86,4.65,4.65,0,0,0-1.41,2.34v9.87h-1.59V211.59h1.55l0,2.25a4.59,4.59,0,0,1,1.61-1.86,4.31,4.31,0,0,1,2.41-.66,4.15,4.15,0,0,1,.59.05,2.53,2.53,0,0,1,.47.11Z"/><path class="cls-1" d="M356.86,224.48a4.81,4.81,0,0,0,.32,1.25v.17h-1.69a7.33,7.33,0,0,1-.32-2,5.84,5.84,0,0,1-2,1.63,6.1,6.1,0,0,1-2.82.63,5.42,5.42,0,0,1-2.42-.52,3.94,3.94,0,0,1-1.62-1.45,4.08,4.08,0,0,1,.21-4.51,4.89,4.89,0,0,1,2.26-1.57,9.83,9.83,0,0,1,3.47-.55h2.93V216a3.1,3.1,0,0,0-1-2.42,3.89,3.89,0,0,0-2.74-.88,4.8,4.8,0,0,0-2,.39,3.45,3.45,0,0,0-1.38,1.05,2.35,2.35,0,0,0-.49,1.45H346a3.47,3.47,0,0,1,.7-2,5,5,0,0,1,2-1.57,6.49,6.49,0,0,1,2.83-.6,6.68,6.68,0,0,1,2.73.53,4,4,0,0,1,1.83,1.56,4.74,4.74,0,0,1,.65,2.57v6.92A10.41,10.41,0,0,0,356.86,224.48Zm-3.48-.5a4.52,4.52,0,0,0,1.78-2v-3.16h-2.71a8.77,8.77,0,0,0-2.78.38,3.81,3.81,0,0,0-1.77,1.1,2.51,2.51,0,0,0-.62,1.7,2.56,2.56,0,0,0,.4,1.42,2.78,2.78,0,0,0,1.13,1,3.76,3.76,0,0,0,1.69.37A5.27,5.27,0,0,0,353.38,224Z"/><path class="cls-1" d="M370.51,205.58V225.9H369L369,224a4.94,4.94,0,0,1-1.84,1.62,5.73,5.73,0,0,1-2.63.57,4.78,4.78,0,0,1-2.9-.92,5.84,5.84,0,0,1-1.92-2.57,10,10,0,0,1-.67-3.79v-.28a10.28,10.28,0,0,1,.66-3.85,5.64,5.64,0,0,1,1.92-2.54,4.91,4.91,0,0,1,2.94-.9,5.46,5.46,0,0,1,2.58.59,5.1,5.1,0,0,1,1.84,1.68v-8Zm-3.18,18.52a4.64,4.64,0,0,0,1.6-1.89v-6.75a5,5,0,0,0-1.53-2,4.05,4.05,0,0,0-2.59-.77,3.57,3.57,0,0,0-2.35.77,4.51,4.51,0,0,0-1.42,2.09,9.26,9.26,0,0,0-.47,3.05v.28a9.2,9.2,0,0,0,.47,3,4.48,4.48,0,0,0,1.4,2.1,3.6,3.6,0,0,0,2.34.76A4.45,4.45,0,0,0,367.33,224.1Z"/><path class="cls-1" d="M374.57,218.84v.3a6.67,6.67,0,0,0,.62,2.88,5.07,5.07,0,0,0,1.73,2.06,4.46,4.46,0,0,0,2.54.75,5.12,5.12,0,0,0,2.27-.47,4.76,4.76,0,0,0,1.74-1.49l1,.76a5.8,5.8,0,0,1-2,1.84,6.32,6.32,0,0,1-8.64-2.7,7.83,7.83,0,0,1-.83-3.63v-.57a8.23,8.23,0,0,1,.84-3.79,6.34,6.34,0,0,1,2.25-2.56,5.57,5.57,0,0,1,3.05-.9,5.48,5.48,0,0,1,3.06.84,5.19,5.19,0,0,1,1.94,2.31,8.28,8.28,0,0,1,.66,3.4v1Zm2.4-5.57A4.51,4.51,0,0,0,375.4,215a6.59,6.59,0,0,0-.77,2.53h8.56v-.17a5.9,5.9,0,0,0-.49-2.31,4,4,0,0,0-1.38-1.69,3.72,3.72,0,0,0-2.2-.65A4,4,0,0,0,377,213.27Z"/><polygon class="cls-1" points="441 129.03 441 282.36 21.41 282.36 21.41 21.27 333.24 21.27 333.24 30.65 30.83 30.65 30.83 272.98 431.58 272.98 431.58 129.03 441 129.03"/><polygon class="cls-2" points="455.1 7.17 455.1 114.93 445.68 114.93 445.68 16.55 347.34 16.55 347.34 7.17 455.1 7.17"/></svg>